<svg xmlns="http://www.w3.org/2000/svg" width="828.571533203125" height="619.9555053710938" viewBox="-253.2581024169922 -179.94586181640625 828.571533203125 619.9555053710938"><title>Neo4j Graph Visualization</title><desc>Created using Neo4j (http://www.neo4j.com/)</desc><g class="layer relationships"><g class="relationship" transform="translate(136.01443543748974 -61.73814963610401) rotate(392.70065893286676)"><path class="outline" fill="#6DCE9E" stroke="none" d="M 8.903873064667227,-39.025261619216515 L 11.801650543534432,-38.24880448390895 A 185.5629075303541 185.5629075303541 0 0 1 156.81032462544732,-172.59979218258684 L 156.25690587664891,-175.54830497524665 A 188.5629075303541 188.5629075303541 0 0 0 8.903873064667227,-39.025261619216515 Z M 217.45848817208687,-176.92488675800837 L 217.0382013852048,-173.95447281096796 A 185.5629075303541 185.5629075303541 0 0 1 367.9409710038285,-46.259298367943835 L 365.0810355022279,-45.353335384878584 L 372.08882770382456,-38.132473354674644 L 373.6608420070297,-48.07122433407434 L 370.8009065054291,-47.165261351009086 A 188.5629075303541 188.5629075303541 0 0 0 217.45848817208687,-176.92488675800837"/><text text-anchor="middle" pointer-events="none" font-size="8px" fill="#000000" x="186.8351909334542" y="-174.2371963339973" font-family="sans-serif">NEXT_SIBLING</text></g><g class="relationship" transform="translate(-137.29689563146212 141.33894870276492) rotate(323.3867354032988)"><path class="outline" fill="#6DCE9E" stroke="none" d="M 18.700961894323346,-35.39101615137754 L 21.29903810567666,-33.89101615137754 A 170.63485108001356 170.63485108001356 0 0 1 135.21089221178886,-115.81473278532471 L 134.61554615875525,-118.75506662302703 A 173.63485108001356 173.63485108001356 0 0 0 18.700961894323346,-35.39101615137754 Z M 195.8100312619872,-120.13757546584765 L 195.3480811894573,-117.17335514163258 A 170.63485108001356 170.63485108001356 0 0 1 312.84347421298975,-40.47760251309919 L 310.3157903420032,-38.86180108707106 L 318.9547204265674,-33.70245161315367 L 317.8988419549628,-43.709205365155455 L 315.37115808397624,-42.09340393912732 A 173.63485108001356 173.63485108001356 0 0 0 195.8100312619872,-120.13757546584765"/><text text-anchor="middle" pointer-events="none" font-size="8px" fill="#000000" x="165.1852668816814" y="-117.66452962553956" font-family="sans-serif">NEXT_SIBLING</text></g><g class="relationship" transform="translate(136.01443543748974 -61.73814963610401) rotate(454.93905599156017)"><path class="outline" fill="#6DCE9E" stroke="none" d="M 11.801650543534434 38.24880448390895 L 22.154412347635265 76.88583753547168 A 22.935935394489817 22.935935394489817 0 1 1 -22.154412347635265 76.88583753547168 L -14.13102194945712 46.94213692051056 L -8.33546699172271 48.49505119112569 L -10.352761804100831 38.63703305156273 L -17.028799428324326 46.165679785203004 L -11.233244470589915 47.71859405581813 L -19.25663486876806 77.66229467077923 A 19.935935394489817 19.935935394489817 0 1 0 19.25663486876806 77.66229467077923 L 8.903873064667229 39.02526161921651 Z"/><text text-anchor="middle" pointer-events="none" font-size="8px" fill="#000000" x="0" y="114.75802982729645" transform="rotate(180 0 111.75802982729645)" font-family="sans-serif">NEXT_SIBLING</text></g><g class="relationship" transform="translate(459.29384382001354 145.80879222369566) rotate(194.90996576487888)"><path class="outline" fill="#6DCE9E" stroke="none" d="M 11.801650543534434 38.24880448390895 L 22.154412347635265 76.88583753547168 A 22.935935394489817 22.935935394489817 0 1 1 -22.154412347635265 76.88583753547168 L -14.13102194945712 46.94213692051056 L -8.33546699172271 48.49505119112569 L -10.352761804100831 38.63703305156273 L -17.028799428324326 46.165679785203004 L -11.233244470589915 47.71859405581813 L -19.25663486876806 77.66229467077923 A 19.935935394489817 19.935935394489817 0 1 0 19.25663486876806 77.66229467077923 L 8.903873064667229 39.02526161921651 Z"/><text text-anchor="middle" pointer-events="none" font-size="8px" fill="#000000" x="0" y="114.75802982729645" transform="rotate(180 0 111.75802982729645)" font-family="sans-serif">NEXT_SIBLING</text></g><g class="relationship" transform="translate(-137.29689563146212 141.33894870276492) rotate(360.42926978239075)"><path class="outline" fill="#6DCE9E" stroke="none" d="M 33.89101615137755,-21.299038105676654 L 35.39101615137755,-18.70096189432334 A 524.4828603724965 524.4828603724965 0 0 1 263.3390071992666,-87.84599805973062 L 263.1428514710469,-90.83957834599096 A 527.4828603724965 527.4828603724965 0 0 0 33.89101615137755,-21.299038105676654 Z M 324.28084029819354,-91.29477386247561 L 324.1292805265163,-88.29860470242988 A 524.4828603724965 524.4828603724965 0 0 1 553.0815659559083,-22.555364397876566 L 551.6204174289372,-19.935241312574984 L 561.6725094752986,-19.481980359614145 L 556.0038630098505,-27.795610568479727 L 554.5427144828794,-25.175487483178145 A 527.4828603724965 527.4828603724965 0 0 0 324.28084029819354,-91.29477386247561"/><text text-anchor="middle" pointer-events="none" font-size="8px" fill="#000000" x="293.71641297516976" y="-87.4537633598676" font-family="sans-serif">NEXT_SIBLING</text></g><g class="relationship" transform="translate(459.29384382001354 145.80879222369566) rotate(212.70065893286676)"><path class="outline" fill="#6DCE9E" stroke="none" d="M 24.562437722783105,31.605959139288927 L 26.860571052140042,29.677596310229312 A 214.32318418470118 214.32318418470118 0 0 0 157.10817955802165,103.53312499419066 L 156.6331939529954,106.49528445563392 A 217.32318418470118 217.32318418470118 0 0 1 24.562437722783105,31.605959139288927 Z M 217.84333887258177,107.57748350277946 L 217.47335970568247,104.60038501330006 A 214.32318418470118 214.32318418470118 0 0 0 350.2502911964337,35.39514603105794 L 348.02175997420017,33.38675150021238 L 357.38974040008713,29.71374962978016 L 354.70735364090075,39.41193509274907 L 352.4788224186672,37.403540561903505 A 217.32318418470118 217.32318418470118 0 0 1 217.84333887258177,107.57748350277946"/><text text-anchor="middle" pointer-events="none" font-size="8px" fill="#000000" x="187.22648467411423" y="110.70276964417646" transform="rotate(180 187.22648467411423 107.70276964417646)" font-family="sans-serif">NEXT_SIBLING</text></g><g class="relationship" transform="translate(136.01443543748974 -61.73814963610401) rotate(448.9603990669954)"><path class="outline" fill="#FF756E" stroke="none" d="M 33.39101615137755,22.165063509461092 L 35.89101615137755,17.8349364905389 A 383.85472991868187 383.85472991868187 0 0 0 195.5206091608394,67.90052832046888 L 195.09990610011744,72.88279777672062 A 388.85472991868187 388.85472991868187 0 0 1 33.39101615137755,22.165063509461092 Z M 251.40904314963052,73.54547157906995 L 251.1057079935448,68.55468128262567 A 383.85472991868187 383.85472991868187 0 0 0 411.86932069483805,22.259635317899598 L 410.4308785558827,19.626978064689915 L 422.72109907240304,19.179228519404703 L 415.70516639871903,29.280054659792086 L 414.2667242597637,26.647397406582403 A 388.85472991868187 388.85472991868187 0 0 1 251.40904314963052,73.54547157906995"/><text text-anchor="middle" pointer-events="none" font-size="8px" fill="#000000" x="223.27188220078997" y="74.7349671380324" font-family="sans-serif">IS_CHILD_OF</text></g><g class="relationship" transform="translate(459.29384382001354 145.80879222369566) rotate(501.53788626091523)"><path class="outline" fill="#FF756E" stroke="none" d="M 26.516504294495533,30.05203820042827 L 30.05203820042827,26.516504294495533 A 240.17703614977805 240.17703614977805 0 0 0 167.7127457534383,94.6984937205485 L 167.04302928284028,99.6534387100524 A 245.17703614977805 245.17703614977805 0 0 1 26.516504294495533,30.05203820042827 Z M 223.48432727883616,100.72411098966268 L 223.00301225638856,95.74733132313469 A 240.17703614977805 240.17703614977805 0 0 0 363.15052949428843,32.8352696962705 L 361.111187811615,30.63502300525813 L 372.9175520968949,27.191222435645056 L 368.58877398141743,38.702594205636814 L 366.549432298744,36.50234751462445 A 245.17703614977805 245.17703614977805 0 0 1 223.48432727883616,100.72411098966268"/><text text-anchor="middle" pointer-events="none" font-size="8px" fill="#000000" x="195.28017613792537" y="102.31907785117392" transform="rotate(180 195.28017613792537 99.31907785117392)" font-family="sans-serif">IS_CHILD_OF</text></g><g class="relationship" transform="translate(459.29384382001354 145.80879222369566) rotate(212.70065893286676)"><path class="outline" fill="#FF756E" stroke="none" d="M 35.19576582711424,19.170499937219603 L 37.308857135817746,14.638961002036353 A 363.1468621413986 363.1468621413986 0 0 0 158.73147820917097,47.24593313286141 L 158.29019841437332,52.226422279792985 A 368.1468621413986 368.1468621413986 0 0 1 35.19576582711424,19.170499937219603 Z M 214.6140752701664,52.89075475823648 L 214.29039028259197,47.901242955582916 A 363.1468621413986 363.1468621413986 0 0 0 336.4483143337766,18.167270275018133 L 335.2449420063589,15.419199125719883 L 347.52738548738483,16.044964365568603 L 339.6573072068903,25.495460006480137 L 338.4539348794726,22.74738885718189 A 368.1468621413986 368.1468621413986 0 0 1 214.6140752701664,52.89075475823648"/><text text-anchor="middle" pointer-events="none" font-size="8px" fill="#000000" x="186.46889764976638" y="54.13756261998242" transform="rotate(180 186.46889764976638 51.13756261998242)" font-family="sans-serif">IS_CHILD_OF</text></g><g class="relationship" transform="translate(-137.29689563146212 141.33894870276492) rotate(402.1234567569326)"><path class="outline" fill="#FF756E" stroke="none" d="M 33.39101615137755,22.165063509461092 L 35.89101615137755,17.8349364905389 A 305.2733170910671 305.2733170910671 0 0 0 156.50066006967768,57.04913887946725 L 155.97609711520104,62.02154611407616 A 310.2733170910671 310.2733170910671 0 0 1 33.39101615137755,22.165063509461092 Z M 212.34750553781936,62.81812480166178 L 211.9636531481871,57.83288084143538 A 305.2733170910671 305.2733170910671 0 0 0 333.63318208009,22.042301011153388 L 332.207192654294,19.40287793829865 L 344.4993912020541,19.01319234394693 L 337.4358205488794,29.080762538766017 L 336.00983112308336,26.44133946591128 A 310.2733170910671 310.2733170910671 0 0 1 212.34750553781936,62.81812480166178"/><text text-anchor="middle" pointer-events="none" font-size="8px" fill="#000000" x="184.17899514634226" y="64.20308204078412" font-family="sans-serif">IS_CHILD_OF</text></g><g class="relationship" transform="translate(-137.29689563146212 141.33894870276492) rotate(323.3867354032988)"><path class="outline" fill="#FF756E" stroke="none" d="M 33.39101615137755,-22.165063509461092 L 35.89101615137755,-17.8349364905389 A 265.7769018341428 265.7769018341428 0 0 1 136.94118432418293,-51.528392559953716 L 136.34221800083904,-56.49238685321194 A 270.7769018341428 270.7769018341428 0 0 0 33.39101615137755,-22.165063509461092 Z M 192.75454309590214,-57.378802884311426 L 192.31183406376064,-52.39844057692255 A 265.7769018341428 265.7769018341428 0 0 1 294.37071540696274,-21.896470007334074 L 292.95308376773676,-19.25254857592477 L 305.24645368815186,-18.901755189679854 L 298.1510664448987,-28.946927157758886 L 296.7334348056727,-26.303005726349582 A 270.7769018341428 270.7769018341428 0 0 0 192.75454309590214,-57.378802884311426"/><text text-anchor="middle" pointer-events="none" font-size="8px" fill="#000000" x="164.5645088273178" y="-52.90917647911863" font-family="sans-serif">IS_CHILD_OF</text></g><g class="relationship" transform="translate(136.01443543748974 -61.73814963610401) rotate(496.4913765798215)"><path class="outline" fill="#FF756E" stroke="none" d="M 12.767576369823502 37.98998543880643 L 23.120338173924335 76.62701849036915 A 23.935935394489817 23.935935394489817 0 1 1 -23.120338173924335 76.62701849036915 L -15.614585865951227 48.61516952798618 L -7.887179255638683 50.68572188880635 L -10.352761804100831 38.63703305156273 L -18.512363344818432 47.83871239267862 L -10.784956734505888 49.90926475349878 L -18.29070904247899 77.92111371588176 A 18.935935394489817 18.935935394489817 0 1 0 18.29070904247899 77.92111371588176 L 7.93794723837816 39.28408066431903 Z"/><text text-anchor="middle" pointer-events="none" font-size="8px" fill="#000000" x="0" y="115.75802982729645" transform="rotate(180 0 112.75802982729645)" font-family="sans-serif">IS_CHILD_OF</text></g><g class="relationship" transform="translate(136.01443543748974 -61.73814963610401) rotate(448.9603990669954)"><path class="outline" fill="#DE9BF9" stroke="none" d="M 40 2.5 L 187.4115978909327 2.5 L 187.4115978909327 -2.5 L 40 -2.5 Z M 259.41159789093274 2.5 L 406.8231957818654 2.5 L 406.8231957818654 5.5 L 417.8231957818654 0 L 406.8231957818654 -5.5 L 406.8231957818654 -2.5 L 259.41159789093274 -2.5 Z"/><text text-anchor="middle" pointer-events="none" font-size="8px" fill="#000000" x="223.4115978909327" y="3" font-family="sans-serif">FIRST_CHILD_OF</text></g><g class="relationship" transform="translate(136.01443543748974 -61.73814963610401) rotate(538.0436971680829)"><path class="outline" fill="#DE9BF9" stroke="none" d="M 12.767576369823502 37.98998543880643 L 23.120338173924335 76.62701849036915 A 23.935935394489817 23.935935394489817 0 1 1 -23.120338173924335 76.62701849036915 L -15.614585865951227 48.61516952798618 L -7.887179255638683 50.68572188880635 L -10.352761804100831 38.63703305156273 L -18.512363344818432 47.83871239267862 L -10.784956734505888 49.90926475349878 L -18.29070904247899 77.92111371588176 A 18.935935394489817 18.935935394489817 0 1 0 18.29070904247899 77.92111371588176 L 7.93794723837816 39.28408066431903 Z"/><text text-anchor="middle" pointer-events="none" font-size="8px" fill="#000000" x="0" y="115.75802982729645" transform="rotate(180 0 112.75802982729645)" font-family="sans-serif">FIRST_CHILD_…</text></g><g class="relationship" transform="translate(-137.29689563146212 141.33894870276492) rotate(323.3867354032988)"><path class="outline" fill="#DE9BF9" stroke="none" d="M 40 2.5 L 128.7493697201379 2.5 L 128.7493697201379 -2.5 L 40 -2.5 Z M 200.7493697201379 2.5 L 289.4987394402758 2.5 L 289.4987394402758 5.5 L 300.4987394402758 0 L 289.4987394402758 -5.5 L 289.4987394402758 -2.5 L 200.7493697201379 -2.5 Z"/><text text-anchor="middle" pointer-events="none" font-size="8px" fill="#000000" x="164.7493697201379" y="3" font-family="sans-serif">FIRST_CHILD_OF</text></g><g class="relationship" transform="translate(-137.29689563146212 141.33894870276492) rotate(402.1234567569326)"><path class="outline" fill="#DE9BF9" stroke="none" d="M 40 2.5 L 148.3458494200586 2.5 L 148.3458494200586 -2.5 L 40 -2.5 Z M 220.3458494200586 2.5 L 328.6916988401172 2.5 L 328.6916988401172 5.5 L 339.6916988401172 0 L 328.6916988401172 -5.5 L 328.6916988401172 -2.5 L 220.3458494200586 -2.5 Z"/><text text-anchor="middle" pointer-events="none" font-size="8px" fill="#000000" x="184.3458494200586" y="3" font-family="sans-serif">FIRST_CHILD_OF</text></g><g class="relationship" transform="translate(459.29384382001354 145.80879222369566) rotate(212.70065893286676)"><path class="outline" fill="#DE9BF9" stroke="none" d="M 40 2.5 L 150.58416707234727 2.5 L 150.58416707234727 -2.5 L 40 -2.5 Z M 222.58416707234727 2.5 L 333.16833414469454 2.5 L 333.16833414469454 5.5 L 344.16833414469454 0 L 333.16833414469454 -5.5 L 333.16833414469454 -2.5 L 222.58416707234727 -2.5 Z"/><text text-anchor="middle" pointer-events="none" font-size="8px" fill="#000000" x="186.58416707234727" y="3" transform="rotate(180 186.58416707234727 0)" font-family="sans-serif">FIRST_CHILD_OF</text></g><g class="relationship" transform="translate(459.29384382001354 145.80879222369566) rotate(501.53788626091523)"><path class="outline" fill="#DE9BF9" stroke="none" d="M 37.98998543880643,12.7675763698235 L 39.284080664319035,7.937947238378159 A 620.5059925914233 620.5059925914233 0 0 0 159.7766564548002,27.783694671397598 L 159.45348316420126,32.773239643060265 A 625.5059925914233 625.5059925914233 0 0 1 37.98998543880643,12.7675763698235 Z M 231.70046491522734,33.271418684373884 L 231.4461298957003,28.277891504329432 A 620.5059925914233 620.5059925914233 0 0 0 352.20092756740974,10.095665263724541 L 351.4645056138486,7.187455727547132 L 363.47804749469447,9.818959380814928 L 354.1647194435727,17.850890693530964 L 353.4282974900116,14.942681157353555 A 625.5059925914233 625.5059925914233 0 0 1 231.70046491522734,33.271418684373884"/><text text-anchor="middle" pointer-events="none" font-size="8px" fill="#000000" x="195.58701363722076" y="34.56636542842102" transform="rotate(180 195.58701363722076 31.566365428421022)" font-family="sans-serif">FIRST_CHILD_OF</text></g><g class="relationship" transform="translate(459.29384382001354 145.80879222369566) rotate(212.70065893286676)"><path class="outline" fill="#FB95AF" stroke="none" d="M 35.19576582711424,-19.170499937219603 L 37.308857135817746,-14.638961002036353 A 363.1468621413986 363.1468621413986 0 0 1 152.8003355645655,-46.6713421507211 L 152.27739262927378,-51.64392002204983 A 368.1468621413986 368.1468621413986 0 0 0 35.19576582711424,-19.170499937219603 Z M 220.63894745774087,-52.450235277402726 L 220.23343544938825,-47.46670640610262 A 363.1468621413986 363.1468621413986 0 0 1 336.4483143337766,-18.167270275018133 L 335.2449420063589,-15.419199125719883 L 347.52738548738483,-16.044964365568603 L 339.6573072068903,-25.495460006480137 L 338.4539348794726,-22.74738885718189 A 368.1468621413986 368.1468621413986 0 0 0 220.63894745774087,-52.450235277402726"/><text text-anchor="middle" pointer-events="none" font-size="8px" fill="#000000" x="186.46889764976638" y="-48.13756261998242" transform="rotate(180 186.46889764976638 -51.13756261998242)" font-family="sans-serif">LAST_CHILD_OF</text></g><g class="relationship" transform="translate(136.01443543748974 -61.73814963610401) rotate(219.59601775634417)"><path class="outline" fill="#FB95AF" stroke="none" d="M 12.767576369823502 37.98998543880643 L 23.120338173924335 76.62701849036915 A 23.935935394489817 23.935935394489817 0 1 1 -23.120338173924335 76.62701849036915 L -15.614585865951227 48.61516952798618 L -7.887179255638683 50.68572188880635 L -10.352761804100831 38.63703305156273 L -18.512363344818432 47.83871239267862 L -10.784956734505888 49.90926475349878 L -18.29070904247899 77.92111371588176 A 18.935935394489817 18.935935394489817 0 1 0 18.29070904247899 77.92111371588176 L 7.93794723837816 39.28408066431903 Z"/><text text-anchor="middle" pointer-events="none" font-size="8px" fill="#000000" x="0" y="115.75802982729645" transform="rotate(180 0 112.75802982729645)" font-family="sans-serif">LAST_CHILD_OF</text></g><g class="relationship" transform="translate(136.01443543748974 -61.73814963610401) rotate(392.70065893286676)"><path class="outline" fill="#A5ABB6" stroke="none" d="M 24.945459944342595,31.28456533444566 L 26.477548830580552,29.99899011507258 A 214.98798760004078 214.98798760004078 0 0 0 174.3635978561214,106.1376117072579 L 174.20727001287403,108.13149274819934 A 216.98798760004078 216.98798760004078 0 0 1 24.945459944342595,31.28456533444566 Z M 201.31126100973742,108.55815176691955 L 201.2177686551329,106.56033816709835 A 214.98798760004078 214.98798760004078 0 0 0 351.4270315717326,35.11420091395681 L 349.1907327260368,33.114459062432 L 357.5051094576973,29.81731794260975 L 355.1541963145588,38.44710399983149 L 352.91789746886303,36.44736214830668 A 216.98798760004078 216.98798760004078 0 0 1 201.31126100973742,108.55815176691955"/><text text-anchor="middle" pointer-events="none" font-size="8px" fill="#000000" x="187.76833602905305" y="110.76860748048072" font-family="sans-serif">NEXT</text></g><g class="relationship" transform="translate(-137.29689563146212 141.33894870276492) rotate(323.3867354032988)"><path class="outline" fill="#A5ABB6" stroke="none" d="M 34.14101615137755,20.866025403784434 L 35.14101615137755,19.13397459621556 A 268.1491517593217 268.1491517593217 0 0 0 152.68910896205028,54.54938692100421 L 152.5658455993989,56.54558484291175 A 270.1491517593217 270.1491517593217 0 0 1 34.14101615137755,20.866025403784434 Z M 179.6530046534385,56.85744504403294 L 179.57573317170755,54.85893832197496 A 268.1491517593217 268.1491517593217 0 0 0 297.9080493704836,22.159267121882174 L 296.4682634547524,19.52734453243124 L 305.40643824759644,19.197145543082648 L 300.3076925633689,26.545804770967063 L 298.8679066476377,23.91388218151613 A 270.1491517593217 270.1491517593217 0 0 1 179.6530046534385,56.85744504403294"/><text text-anchor="middle" pointer-events="none" font-size="8px" fill="#000000" x="166.11702617936172" y="59.04131229720542" font-family="sans-serif">NEXT</text></g><g class="relationship" transform="translate(144.32093393153605 396.0096856167661) rotate(222.12345675693263)"><path class="outline" fill="#A5ABB6" stroke="none" d="M 34.14101615137755,20.866025403784434 L 35.14101615137755,19.13397459621556 A 307.5555306630444 307.5555306630444 0 0 0 172.28876779543143,59.88866795404698 L 172.18062463408674,61.88574207802293 A 309.5555306630444 309.5555306630444 0 0 1 34.14101615137755,20.866025403784434 Z M 199.25803872028084,62.16588713978706 L 199.1912380579555,60.167003033213405 A 307.5555306630444 307.5555306630444 0 0 0 337.1528441692093,22.258612788926538 L 335.70691930776974,19.63005780660811 L 344.6442990758716,19.278998152527226 L 339.56271893827517,26.63953775945725 L 338.1167940768356,24.010982777138825 A 309.5555306630444 309.5555306630444 0 0 1 199.25803872028084,62.16588713978706"/><text text-anchor="middle" pointer-events="none" font-size="8px" fill="#000000" x="185.72661246897744" y="64.32208985634105" transform="rotate(180 185.72661246897744 61.32208985634105)" font-family="sans-serif">NEXT</text></g><g class="relationship" transform="translate(144.32093393153605 396.0096856167661) rotate(321.53788626091523)"><path class="outline" fill="#A5ABB6" stroke="none" d="M 38.37821400646021,11.318687630389897 L 38.89585209666525,9.386835977811762 A 623.4323542726281 623.4323542726281 0 0 0 183.62708167904748,30.40807207527257 L 183.57374810749786,32.407360831341975 A 625.4323542726281 625.4323542726281 0 0 1 38.37821400646021,11.318687630389897 Z M 210.61453587069227,32.54392639794685 L 210.5813987389645,30.544200934164223 A 623.4323542726281 623.4323542726281 0 0 0 355.51756943346777,10.985887921348782 L 354.770420766958,8.080415692926577 L 363.51454493143024,9.961982220130157 L 356.762817210984,15.828341635385788 L 356.01566854447424,12.922869406963583 A 625.4323542726281 625.4323542726281 0 0 1 210.61453587069227,32.54392639794685"/><text text-anchor="middle" pointer-events="none" font-size="8px" fill="#000000" x="197.09845412607862" y="34.621815055390016" font-family="sans-serif">NEXT</text></g><g class="relationship" transform="translate(459.29384382001354 145.80879222369566) rotate(180.42926978239075)"><path class="outline" fill="#A5ABB6" stroke="none" d="M 40 1 L 280.80374197299307 1 L 280.80374197299307 -1 L 40 -1 Z M 307.80374197299307 1 L 548.6074839459861 1 L 548.6074839459861 4 L 556.6074839459861 0 L 548.6074839459861 -4 L 548.6074839459861 -1 L 307.80374197299307 -1 Z"/><text text-anchor="middle" pointer-events="none" font-size="8px" fill="#000000" x="294.30374197299307" y="3" transform="rotate(180 294.30374197299307 0)" font-family="sans-serif">NEXT</text></g><g class="relationship" transform="translate(-137.29689563146212 141.33894870276492) rotate(360.42926978239075)"><path class="outline" fill="#A5ABB6" stroke="none" d="M 34.14101615137755,20.866025403784434 L 35.14101615137755,19.13397459621556 A 525.1454463316296 525.1454463316296 0 0 0 280.7619340126244,89.21644849331835 L 280.6973735925618,91.21540620976998 A 527.1454463316296 527.1454463316296 0 0 1 34.14101615137755,20.866025403784434 Z M 307.74512806672897,91.39466821563894 L 307.70706878415587,89.39503037567636 A 525.1454463316296 525.1454463316296 0 0 0 554.2353276839465,22.574329972456745 L 552.7698960202503,19.95660003240631 L 561.7044180786464,19.539088849283576 L 556.6777137901068,26.93721320587414 L 555.2122821264106,24.319483265823706 A 527.1454463316296 527.1454463316296 0 0 1 307.74512806672897,91.39466821563894"/><text text-anchor="middle" pointer-events="none" font-size="8px" fill="#000000" x="294.2267283426229" y="93.47856857298393" font-family="sans-serif">NEXT</text></g><g class="relationship" transform="translate(136.01443543748974 -61.73814963610401) rotate(261.14833834460546)"><path class="outline" fill="#A5ABB6" stroke="none" d="M 11.3186876303899 38.37821400646021 L 21.671449434490732 77.01524705802294 A 22.435935394489817 22.435935394489817 0 1 1 -21.671449434490732 77.01524705802294 L -13.389239991210065 46.105620616772754 L -8.559610859764723 47.39971584228536 L -10.352761804100831 38.63703305156273 L -16.287017470077267 45.329163481465194 L -11.457388338631928 46.62325870697779 L -19.739597781912593 77.53288514822798 A 20.435935394489817 20.435935394489817 0 1 0 19.739597781912593 77.53288514822798 L 9.386835977811764 38.89585209666525 Z"/><text text-anchor="middle" pointer-events="none" font-size="8px" fill="#000000" x="0" y="114.25802982729645" transform="rotate(180 0 111.25802982729645)" font-family="sans-serif">NEXT</text></g><g class="relationship" transform="translate(144.32093393153605 396.0096856167661) rotate(268.9603990669954)"><path class="outline" fill="#A5ABB6" stroke="none" d="M 34.14101615137755,20.866025403784434 L 35.14101615137755,19.13397459621556 A 386.00345196408387 386.00345196408387 0 0 0 211.36076295634845,70.48364997179692 L 211.27381047397205,72.48175889420548 A 388.00345196408387 388.00345196408387 0 0 1 34.14101615137755,20.866025403784434 Z M 238.33708528954355,72.71468578693214 L 238.28453759645205,70.7153762211193 A 386.00345196408387 386.00345196408387 0 0 0 415.3620213278101,22.40644246600243 L 413.9069622221847,19.782932793991165 L 422.84306682171524,19.400788075005153 L 417.78711983718574,26.778958586021204 L 416.3320607315603,24.155448914009938 A 388.00345196408387 388.00345196408387 0 0 1 238.33708528954355,72.71468578693214"/><text text-anchor="middle" pointer-events="none" font-size="8px" fill="#000000" x="224.8120227878553" y="74.83429813877007" transform="rotate(180 224.8120227878553 71.83429813877007)" font-family="sans-serif">NEXT</text></g><g class="relationship" transform="translate(136.01443543748974 -61.73814963610401) rotate(503.3867354032988)"><path class="outline" fill="#A5ABB6" stroke="none" d="M 19.133974596215566,-35.14101615137754 L 20.86602540378444,-34.14101615137754 A 171.29932445281727 171.29932445281727 0 0 1 152.37665121155584,-118.96102462937769 L 152.18004867534304,-120.95133803252672 A 173.29932445281727 173.29932445281727 0 0 0 19.133974596215566,-35.14101615137754 Z M 179.30349073339957,-121.49681671610072 L 179.1870690596947,-119.50020809298708 A 171.29932445281727 171.29932445281727 0 0 1 314.001604381819,-40.0362564895106 L 311.4659374231791,-38.4330119433287 L 319.12214549118397,-33.808892781864884 L 318.2277159795521,-42.708330733147086 L 315.69204902091224,-41.10508618696519 A 173.29932445281727 173.29932445281727 0 0 0 179.30349073339957,-121.49681671610072"/><text text-anchor="middle" pointer-events="none" font-size="8px" fill="#000000" x="165.75118629829137" y="-117.75584562252133" transform="rotate(180 165.75118629829137 -120.75584562252133)" font-family="sans-serif">NEXT</text></g><g class="relationship" transform="translate(459.29384382001354 145.80879222369566) rotate(267.119272596891)"><path class="outline" fill="#A5ABB6" stroke="none" d="M 11.3186876303899 38.37821400646021 L 21.671449434490732 77.01524705802294 A 22.435935394489817 22.435935394489817 0 1 1 -21.671449434490732 77.01524705802294 L -13.389239991210065 46.105620616772754 L -8.559610859764723 47.39971584228536 L -10.352761804100831 38.63703305156273 L -16.287017470077267 45.329163481465194 L -11.457388338631928 46.62325870697779 L -19.739597781912593 77.53288514822798 A 20.435935394489817 20.435935394489817 0 1 0 19.739597781912593 77.53288514822798 L 9.386835977811764 38.89585209666525 Z"/><text text-anchor="middle" pointer-events="none" font-size="8px" fill="#000000" x="0" y="114.25802982729645" transform="rotate(180 0 111.25802982729645)" font-family="sans-serif">NEXT</text></g><g class="relationship" transform="translate(-137.29689563146212 141.33894870276492) rotate(452.7550960801158)"><path class="outline" fill="#A5ABB6" stroke="none" d="M 11.3186876303899 38.37821400646021 L 21.671449434490732 77.01524705802294 A 22.435935394489817 22.435935394489817 0 1 1 -21.671449434490732 77.01524705802294 L -13.389239991210065 46.105620616772754 L -8.559610859764723 47.39971584228536 L -10.352761804100831 38.63703305156273 L -16.287017470077267 45.329163481465194 L -11.457388338631928 46.62325870697779 L -19.739597781912593 77.53288514822798 A 20.435935394489817 20.435935394489817 0 1 0 19.739597781912593 77.53288514822798 L 9.386835977811764 38.89585209666525 Z"/><text text-anchor="middle" pointer-events="none" font-size="8px" fill="#000000" x="0" y="114.25802982729645" transform="rotate(180 0 111.25802982729645)" font-family="sans-serif">NEXT</text></g><g class="relationship" transform="translate(459.29384382001354 145.80879222369566) rotate(212.70065893286676)"><path class="outline" fill="#A5ABB6" stroke="none" d="M 9.386835977811762,-38.89585209666525 L 11.318687630389897,-38.37821400646021 A 186.19360777367197 186.19360777367197 0 0 1 174.0396277747069,-175.59186627991176 L 173.8556442910738,-177.58338581979842 A 188.19360777367197 188.19360777367197 0 0 0 9.386835977811762,-38.89585209666525 Z M 200.97093044206457,-178.12587609916739 L 200.8667501939773,-176.12859132330084 A 186.19360777367197 186.19360777367197 0 0 1 368.9456942490676,-45.533188276333505 L 366.08129206621345,-44.64144832833294 L 372.27846817135384,-38.192029104722465 L 373.71969788715796,-47.0194215230011 L 370.8552957043038,-46.12768157500054 A 188.19360777367197 188.19360777367197 0 0 0 200.97093044206457,-178.12587609916739"/><text text-anchor="middle" pointer-events="none" font-size="8px" fill="#000000" x="187.42350512091875" y="-174.34391704709492" transform="rotate(180 187.42350512091875 -177.34391704709492)" font-family="sans-serif">NEXT</text></g><g class="relationship" transform="translate(144.32093393153605 396.0096856167661) rotate(321.53788626091523)"><path class="outline" fill="#68BDF6" stroke="none" d="M 27.22361107568208,29.344931419241725 L 29.344931419241725,27.22361107568208 A 241.5286082779305 241.5286082779305 0 0 0 168.63289718596803,95.9029789420704 L 168.24165718477238,98.87735808089323 A 244.5286082779305 244.5286082779305 0 0 1 27.22361107568208,29.344931419241725 Z M 224.45590577726287,99.75285834918427 L 224.15748109273883,96.7677381325654 A 241.5286082779305 241.5286082779305 0 0 0 365.5166457498465,32.459266331378316 L 363.4624145917335,30.272914495776888 L 373.10281683570724,27.38974877484004 L 369.62510806607247,36.83197000258117 L 367.5708769079595,34.645618166979745 A 244.5286082779305 244.5286082779305 0 0 1 224.45590577726287,99.75285834918427"/><text text-anchor="middle" pointer-events="none" font-size="8px" fill="#000000" x="196.34689503519536" y="102.43623340283116" font-family="sans-serif">NEXT_WORD</text></g><g class="relationship" transform="translate(459.29384382001354 145.80879222369566) rotate(339.32857942890314)"><path class="outline" fill="#68BDF6" stroke="none" d="M 11.801650543534434 38.24880448390895 L 22.154412347635265 76.88583753547168 A 22.935935394489817 22.935935394489817 0 1 1 -22.154412347635265 76.88583753547168 L -14.13102194945712 46.94213692051056 L -8.33546699172271 48.49505119112569 L -10.352761804100831 38.63703305156273 L -17.028799428324326 46.165679785203004 L -11.233244470589915 47.71859405581813 L -19.25663486876806 77.66229467077923 A 19.935935394489817 19.935935394489817 0 1 0 19.25663486876806 77.66229467077923 L 8.903873064667229 39.02526161921651 Z"/><text text-anchor="middle" pointer-events="none" font-size="8px" fill="#000000" x="0" y="114.75802982729645" font-family="sans-serif">NEXT_WORD</text></g></g><g class="layer nodes"><g class="node" transform="translate(-137.29689563146212,141.33894870276492)"><circle class="outline" cx="0" cy="0" r="40" fill="#A5ABB6" stroke="#9AA1AC" stroke-width="2px"/><text text-anchor="middle" pointer-events="none" font-family="sans-serif" dy="2.5" font-size="40" fill="#FFFFFF"/><text text-anchor="middle" pointer-events="none" y="5" font-size="10px" fill="#FFFFFF" font-family="sans-serif"> XmlProcessing…</text></g><g class="node" transform="translate(144.32093393153605,396.0096856167661)"><circle class="outline" cx="0" cy="0" r="40" fill="#A5ABB6" stroke="#9AA1AC" stroke-width="2px"/><text text-anchor="middle" pointer-events="none" font-family="sans-serif" dy="2.5" font-size="40" fill="#FFFFFF"/><text text-anchor="middle" pointer-events="none" y="5" font-size="10px" fill="#FFFFFF" font-family="sans-serif"> XmlDocument</text></g><g class="node" transform="translate(459.29384382001354,145.80879222369566)"><circle class="outline" cx="0" cy="0" r="40" fill="#A5ABB6" stroke="#9AA1AC" stroke-width="2px"/><text text-anchor="middle" pointer-events="none" font-family="sans-serif" dy="2.5" font-size="40" fill="#FFFFFF"/><text text-anchor="middle" pointer-events="none" y="5" font-size="10px" fill="#FFFFFF" font-family="sans-serif"> XmlWord</text></g><g class="node" transform="translate(136.01443543748974,-61.73814963610401)"><circle class="outline" cx="0" cy="0" r="40" fill="#A5ABB6" stroke="#9AA1AC" stroke-width="2px"/><text text-anchor="middle" pointer-events="none" font-family="sans-serif" dy="2.5" font-size="40" fill="#FFFFFF"/><text text-anchor="middle" pointer-events="none" y="5" font-size="10px" fill="#FFFFFF" font-family="sans-serif"> XmlTag</text></g></g></svg>