<svg xmlns="http://www.w3.org/2000/svg" width="682.2056884765625" height="581.5091552734375" viewBox="-316.2880554199219 -197.0941162109375 682.2056884765625 581.5091552734375"><title>Neo4j Graph Visualization</title><desc>Created using Neo4j (http://www.neo4j.com/)</desc><g class="layer relationships"><g class="relationship" transform="translate(321.9176547797117 -79.35266731888535) rotate(490.9893573710905)"><path class="outline" fill="#DE9BF9" stroke="none" d="M 40 1.5 L 157.63258313097054 1.5 L 157.63258313097054 -1.5 L 40 -1.5 Z M 234.63258313097054 1.5 L 352.2651662619411 1.5 L 352.2651662619411 4.5 L 361.2651662619411 0 L 352.2651662619411 -4.5 L 352.2651662619411 -1.5 L 234.63258313097054 -1.5 Z"/><text text-anchor="middle" pointer-events="none" font-size="8px" fill="#000000" x="196.13258313097054" y="3" transform="rotate(180 196.13258313097054 0)" font-family="sans-serif">APPEARS_IN_ITEM</text></g><g class="relationship" transform="translate(16.336558151758425 59.84458470451216) rotate(321.2566129333943)"><path class="outline" fill="#68BDF6" stroke="none" d="M 11.801650543534434 38.24880448390895 L 22.154412347635265 76.88583753547168 A 22.935935394489817 22.935935394489817 0 1 1 -22.154412347635265 76.88583753547168 L -14.13102194945712 46.94213692051056 L -8.33546699172271 48.49505119112569 L -10.352761804100831 38.63703305156273 L -17.028799428324326 46.165679785203004 L -11.233244470589915 47.71859405581813 L -19.25663486876806 77.66229467077923 A 19.935935394489817 19.935935394489817 0 1 0 19.25663486876806 77.66229467077923 L 8.903873064667229 39.02526161921651 Z"/><text text-anchor="middle" pointer-events="none" font-size="8px" fill="#000000" x="0" y="114.75802982729645" font-family="sans-serif">RELATED_TO</text></g><g class="relationship" transform="translate(58.72027592898199 223.53489172131142) rotate(515.4597585884327)"><path class="outline" fill="#6DCE9E" stroke="none" d="M 38.24880448390895,11.801650543534432 L 39.025261619216515,8.903873064667227 A 380.3046875110002 380.3046875110002 0 0 0 82.75789226143262,17.908444542294774 L 82.32641612750399,20.87725378942571 A 383.3046875110002 383.3046875110002 0 0 1 38.24880448390895,11.801650543534432 Z M 186.40907896907123,21.723528748605645 L 186.0259342577598,18.748095985091425 A 380.3046875110002 380.3046875110002 0 0 0 229.89920196487867,10.455830246243519 L 229.16996684910026,7.545810289969052 L 238.99387939159126,9.72313487704551 L 231.3576721964355,16.27587015879245 L 230.62843708065708,13.365850202517983 A 383.3046875110002 383.3046875110002 0 0 1 186.40907896907123,21.723528748605645"/><text text-anchor="middle" pointer-events="none" font-size="8px" fill="#000000" x="134.35108405081957" y="26.34982114982887" transform="rotate(180 134.35108405081957 23.34982114982887)" font-family="sans-serif">CONCERNING_LOCATION</text></g><g class="relationship" transform="translate(16.336558151758425 59.84458470451216) rotate(487.0032769030398)"><path class="outline" fill="#68BDF6" stroke="none" d="M 40 1.5 L 137.72251005922226 1.5 L 137.72251005922226 -1.5 L 40 -1.5 Z M 202.72251005922226 1.5 L 300.4450201184445 1.5 L 300.4450201184445 4.5 L 309.4450201184445 0 L 300.4450201184445 -4.5 L 300.4450201184445 -1.5 L 202.72251005922226 -1.5 Z"/><text text-anchor="middle" pointer-events="none" font-size="8px" fill="#000000" x="170.22251005922226" y="3" transform="rotate(180 170.22251005922226 0)" font-family="sans-serif">HAS_LOCATION</text></g><g class="relationship" transform="translate(321.9176547797117 -79.35266731888535) rotate(525.3062637261992)"><path class="outline" fill="#DE9BF9" stroke="none" d="M 40 1.5 L 191.44382298726103 1.5 L 191.44382298726103 -1.5 L 40 -1.5 Z M 280.443822987261 1.5 L 431.88764597452206 1.5 L 431.88764597452206 4.5 L 440.88764597452206 0 L 431.88764597452206 -4.5 L 431.88764597452206 -1.5 L 280.443822987261 -1.5 Z"/><text text-anchor="middle" pointer-events="none" font-size="8px" fill="#000000" x="235.94382298726103" y="3" transform="rotate(180 235.94382298726103 0)" font-family="sans-serif">APPEARS_AS_STATUS</text></g><g class="relationship" transform="translate(321.9176547797117 -79.35266731888535) rotate(193.6067171898107)"><path class="outline" fill="#DE9BF9" stroke="none" d="M 40 1.5 L 90.72593104292801 1.5 L 90.72593104292801 -1.5 L 40 -1.5 Z M 213.725931042928 1.5 L 264.451862085856 1.5 L 264.451862085856 4.5 L 273.451862085856 0 L 264.451862085856 -4.5 L 264.451862085856 -1.5 L 213.725931042928 -1.5 Z"/><text text-anchor="middle" pointer-events="none" font-size="8px" fill="#000000" x="152.225931042928" y="3" transform="rotate(180 152.225931042928 0)" font-family="sans-serif">APPEARS_AS_ADMINPOSITION</text></g><g class="relationship" transform="translate(16.336558151758425 59.84458470451216) rotate(186.1585418204021)"><path class="outline" fill="#68BDF6" stroke="none" d="M 40 1.5 L 48.252827998285994 1.5 L 48.252827998285994 -1.5 L 40 -1.5 Z M 103.252827998286 1.5 L 111.50565599657199 1.5 L 111.50565599657199 4.5 L 120.50565599657199 0 L 111.50565599657199 -4.5 L 111.50565599657199 -1.5 L 103.252827998286 -1.5 Z"/><text text-anchor="middle" pointer-events="none" font-size="8px" fill="#000000" x="75.752827998286" y="3" transform="rotate(180 75.752827998286 0)" font-family="sans-serif">HAS_STATUS</text></g><g class="relationship" transform="translate(-193.98066568350703 338.9117584168765) rotate(335.4597585884327)"><path class="outline" fill="#FB95AF" stroke="none" d="M 38.24880448390895,11.801650543534432 L 39.025261619216515,8.903873064667227 A 380.3046875110002 380.3046875110002 0 0 0 93.12728011865987,19.270179707072543 L 92.77760198668403,22.249730882001074 A 383.3046875110002 383.3046875110002 0 0 1 38.24880448390895,11.801650543534432 Z M 175.93695768254798,22.92588268697631 L 175.63577482790873,19.94103949376307 A 380.3046875110002 380.3046875110002 0 0 0 229.89920196487867,10.455830246243519 L 229.16996684910026,7.545810289969052 L 238.99387939159126,9.72313487704551 L 231.3576721964355,16.27587015879245 L 230.62843708065708,13.365850202517983 A 383.3046875110002 383.3046875110002 0 0 1 175.93695768254798,22.92588268697631"/><text text-anchor="middle" pointer-events="none" font-size="8px" fill="#000000" x="134.35108405081957" y="26.34982114982887" font-family="sans-serif">AFFECTED_IN_ITEM</text></g><g class="relationship" transform="translate(16.336558151758425 59.84458470451216) rotate(270.2493617734777)"><path class="outline" fill="#68BDF6" stroke="none" d="M 40 1.5 L 57.470359613853006 1.5 L 57.470359613853006 -1.5 L 40 -1.5 Z M 146.47035961385302 1.5 L 163.940719227706 1.5 L 163.940719227706 4.5 L 172.940719227706 0 L 163.940719227706 -4.5 L 163.940719227706 -1.5 L 146.47035961385302 -1.5 Z"/><text text-anchor="middle" pointer-events="none" font-size="8px" fill="#000000" x="101.970359613853" y="3" font-family="sans-serif">HAS_ADMINPOSITION</text></g><g class="relationship" transform="translate(16.336558151758425 59.84458470451216) rotate(335.5099489637488)"><path class="outline" fill="#DE9BF9" stroke="none" d="M 40 2.5 L 122.89556395808063 2.5 L 122.89556395808063 -2.5 L 40 -2.5 Z M 201.89556395808063 2.5 L 284.79112791616126 2.5 L 284.79112791616126 5.5 L 295.79112791616126 0 L 284.79112791616126 -5.5 L 284.79112791616126 -2.5 L 201.89556395808063 -2.5 Z"/><text text-anchor="middle" pointer-events="none" font-size="8px" fill="#000000" x="162.39556395808063" y="3" font-family="sans-serif">HAS_APPEARANCE</text></g><g class="relationship" transform="translate(-193.98066568350703 338.9117584168765) rotate(258.9170559387497)"><path class="outline" fill="#6DCE9E" stroke="none" d="M 40 1.5 L 170.1817035404455 1.5 L 170.1817035404455 -1.5 L 40 -1.5 Z M 228.1817035404455 1.5 L 358.363407080891 1.5 L 358.363407080891 4.5 L 367.363407080891 0 L 358.363407080891 -4.5 L 358.363407080891 -1.5 L 228.1817035404455 -1.5 Z"/><text text-anchor="middle" pointer-events="none" font-size="8px" fill="#000000" x="199.1817035404455" y="3" transform="rotate(180 199.1817035404455 0)" font-family="sans-serif">BELONGS_TO</text></g><g class="relationship" transform="translate(-143.24279563987915 42.62554145776721) rotate(218.72570143964015)"><path class="outline" fill="#A5ABB6" stroke="none" d="M 40 1.5 L 49.20543965588125 1.5 L 49.20543965588125 -1.5 L 40 -1.5 Z M 107.20543965588125 1.5 L 116.4108793117625 1.5 L 116.4108793117625 4.5 L 125.4108793117625 0 L 116.4108793117625 -4.5 L 116.4108793117625 -1.5 L 107.20543965588125 -1.5 Z"/><text text-anchor="middle" pointer-events="none" font-size="8px" fill="#000000" x="78.20543965588125" y="3" transform="rotate(180 78.20543965588125 0)" font-family="sans-serif">SHAS_REALM</text></g><g class="relationship" transform="translate(321.9176547797117 -79.35266731888535) rotate(458.61235279386057)"><path class="outline" fill="#DE9BF9" stroke="none" d="M 40 1.5 L 143.27747799359244 1.5 L 143.27747799359244 -1.5 L 40 -1.5 Z M 272.27747799359247 1.5 L 375.5549559871849 1.5 L 375.5549559871849 4.5 L 384.5549559871849 0 L 375.5549559871849 -4.5 L 375.5549559871849 -1.5 L 272.27747799359247 -1.5 Z"/><text text-anchor="middle" pointer-events="none" font-size="8px" fill="#000000" x="207.77747799359244" y="3" transform="rotate(180 207.77747799359244 0)" font-family="sans-serif">NONSPECIFIC_APPEARANCE_IN</text></g><g class="relationship" transform="translate(231.63349713254152 108.72274309022077) rotate(443.42441133893254)"><path class="outline" fill="#FFD86E" stroke="none" d="M 40 1.5 L 75.11328066229953 1.5 L 75.11328066229953 -1.5 L 40 -1.5 Z M 149.11328066229953 1.5 L 184.22656132459906 1.5 L 184.22656132459906 4.5 L 193.22656132459906 0 L 184.22656132459906 -4.5 L 184.22656132459906 -1.5 L 149.11328066229953 -1.5 Z"/><text text-anchor="middle" pointer-events="none" font-size="8px" fill="#000000" x="112.11328066229953" y="3" font-family="sans-serif">SOURCED_FROM</text></g><g class="relationship" transform="translate(258.3411815180298 340.4150573823917) rotate(180.19042274758948)"><path class="outline" fill="#6DCE9E" stroke="none" d="M 40 1.5 L 185.1621726569179 1.5 L 185.1621726569179 -1.5 L 40 -1.5 Z M 258.1621726569179 1.5 L 403.3243453138358 1.5 L 403.3243453138358 4.5 L 412.3243453138358 0 L 403.3243453138358 -4.5 L 403.3243453138358 -1.5 L 258.1621726569179 -1.5 Z"/><text text-anchor="middle" pointer-events="none" font-size="8px" fill="#000000" x="221.6621726569179" y="3" transform="rotate(180 221.6621726569179 0)" font-family="sans-serif">PLACE_OF_ISSUE</text></g><g class="relationship" transform="translate(231.63349713254152 108.72274309022077) rotate(506.41635240651567)"><path class="outline" fill="#FFD86E" stroke="none" d="M 40 1.5 L 57.27958799816895 1.5 L 57.27958799816895 -1.5 L 40 -1.5 Z M 141.27958799816895 1.5 L 158.5591759963379 1.5 L 158.5591759963379 4.5 L 167.5591759963379 0 L 158.5591759963379 -4.5 L 158.5591759963379 -1.5 L 141.27958799816895 -1.5 Z"/><text text-anchor="middle" pointer-events="none" font-size="8px" fill="#000000" x="99.27958799816895" y="3" transform="rotate(180 99.27958799816895 0)" font-family="sans-serif">CONCERNING_ITEM</text></g><g class="relationship" transform="translate(17.263312412082925 -153.09411781748992) rotate(522.3301412822169)"><path class="outline" fill="#A5ABB6" stroke="none" d="M 40 1.5 L 118.4442236519458 1.5 L 118.4442236519458 -1.5 L 40 -1.5 Z M 176.4442236519458 1.5 L 254.8884473038916 1.5 L 254.8884473038916 4.5 L 263.8884473038916 0 L 254.8884473038916 -4.5 L 254.8884473038916 -1.5 L 176.4442236519458 -1.5 Z"/><text text-anchor="middle" pointer-events="none" font-size="8px" fill="#000000" x="147.4442236519458" y="3" transform="rotate(180 147.4442236519458 0)" font-family="sans-serif">AHAS_REALM</text></g></g><g class="layer nodes"><g class="node" transform="translate(-143.24279563987915,42.62554145776721)"><circle class="outline" cx="0" cy="0" r="40" fill="#A5ABB6" stroke="#9AA1AC" stroke-width="2px"/><text text-anchor="middle" pointer-events="none" font-family="sans-serif" dy="2.5" font-size="40" fill="#FFFFFF"/><text text-anchor="middle" pointer-events="none" y="5" font-size="10px" fill="#FFFFFF" font-family="sans-serif"> Status</text></g><g class="node" transform="translate(258.3411815180298,340.4150573823917)"><circle class="outline" cx="0" cy="0" r="40" fill="#A5ABB6" stroke="#9AA1AC" stroke-width="2px"/><text text-anchor="middle" pointer-events="none" font-family="sans-serif" dy="2.5" font-size="40" fill="#FFFFFF"/><text text-anchor="middle" pointer-events="none" y="5" font-size="10px" fill="#FFFFFF" font-family="sans-serif"> Charters</text></g><g class="node" transform="translate(58.72027592898199,223.53489172131142)"><circle class="outline" cx="0" cy="0" r="40" fill="#FB95AF" stroke="#E0849B" stroke-width="2px"/><text text-anchor="middle" pointer-events="none" font-family="sans-serif" dy="2.5" font-size="40" fill="#FFFFFF"/><text text-anchor="middle" pointer-events="none" y="5" font-size="10px" fill="#FFFFFF" font-family="sans-serif"> Item</text></g><g class="node" transform="translate(17.263312412082925,-153.09411781748992)"><circle class="outline" cx="0" cy="0" r="40" fill="#A5ABB6" stroke="#9AA1AC" stroke-width="2px"/><text text-anchor="middle" pointer-events="none" font-family="sans-serif" dy="2.5" font-size="40" fill="#FFFFFF"/><text text-anchor="middle" pointer-events="none" y="5" font-size="10px" fill="#FFFFFF" font-family="sans-serif"> AdminPosition</text></g><g class="node" transform="translate(231.63349713254152,108.72274309022077)"><circle class="outline" cx="0" cy="0" r="40" fill="#FFD86E" stroke="#EDBA39" stroke-width="2px"/><text text-anchor="middle" pointer-events="none" font-family="sans-serif" dy="2.5" font-size="40" fill="#604A0E"/><text text-anchor="middle" pointer-events="none" y="5" font-size="10px" fill="#604A0E" font-family="sans-serif"> Event</text></g><g class="node" transform="translate(16.336558151758425,59.84458470451216)"><circle class="outline" cx="0" cy="0" r="40" fill="#68BDF6" stroke="#5CA8DB" stroke-width="2px"/><text text-anchor="middle" pointer-events="none" font-family="sans-serif" dy="2.5" font-size="40" fill="#FFFFFF"/><text text-anchor="middle" pointer-events="none" y="5" font-size="10px" fill="#FFFFFF" font-family="sans-serif"> Person</text></g><g class="node" transform="translate(-272.28807010384503,-60.854292970058296)"><circle class="outline" cx="0" cy="0" r="40" fill="#6DCE9E" stroke="#60B58B" stroke-width="2px"/><text text-anchor="middle" pointer-events="none" font-family="sans-serif" dy="2.5" font-size="40" fill="#FFFFFF"/><text text-anchor="middle" pointer-events="none" y="5" font-size="10px" fill="#FFFFFF" font-family="sans-serif"> Realm</text></g><g class="node" transform="translate(321.9176547797117,-79.35266731888535)"><circle class="outline" cx="0" cy="0" r="40" fill="#DE9BF9" stroke="#BF85D6" stroke-width="2px"/><text text-anchor="middle" pointer-events="none" font-family="sans-serif" dy="2.5" font-size="40" fill="#FFFFFF"/><text text-anchor="middle" pointer-events="none" y="5" font-size="10px" fill="#FFFFFF" font-family="sans-serif"> Appearance</text></g><g class="node" transform="translate(-193.98066568350703,338.9117584168765)"><circle class="outline" cx="0" cy="0" r="40" fill="#6DCE9E" stroke="#60B58B" stroke-width="2px"/><text text-anchor="middle" pointer-events="none" font-family="sans-serif" dy="2.5" font-size="40" fill="#FFFFFF"/><text text-anchor="middle" pointer-events="none" y="5" font-size="10px" fill="#FFFFFF" font-family="sans-serif"> Location</text></g></g></svg>