<svg xmlns="http://www.w3.org/2000/svg" width="635.0946655273438" height="615.34423828125" viewBox="-309.547119140625 -196.33653259277344 635.0946655273438 615.34423828125"><title>Neo4j Graph Visualization</title><desc>Created using Neo4j (http://www.neo4j.com/)</desc><g class="layer relationships"><g class="relationship" transform="translate(-17.864084210315013 133.0417228894768) rotate(383.63049601490627)"><path class="outline" fill="#C990C0" stroke="none" d="M 40 1.5 L 135.19437875919817 1.5 L 135.19437875919817 -1.5 L 40 -1.5 Z M 174.19437875919817 1.5 L 269.38875751839635 1.5 L 269.38875751839635 4.5 L 278.38875751839635 0 L 269.38875751839635 -4.5 L 269.38875751839635 -1.5 L 174.19437875919817 -1.5 Z"/><text text-anchor="middle" pointer-events="none" font-size="8px" fill="#000000" x="154.69437875919817" y="3" font-family="sans-serif">SENDER</text></g><g class="relationship" transform="translate(-49.61269728235152 -27.75824163528162) rotate(401.72438827928966)"><path class="outline" fill="#8DCC93" stroke="none" d="M 40 1.5 L 189.1799559628626 1.5 L 189.1799559628626 -1.5 L 40 -1.5 Z M 235.1799559628626 1.5 L 384.3599119257252 1.5 L 384.3599119257252 4.5 L 393.3599119257252 0 L 384.3599119257252 -4.5 L 384.3599119257252 -1.5 L 235.1799559628626 -1.5 Z"/><text text-anchor="middle" pointer-events="none" font-size="8px" fill="#000000" x="212.1799559628626" y="3" font-family="sans-serif">RECEIVER</text></g><g class="relationship" transform="translate(6.113177723159254 -152.33653183876666) rotate(417.0479368043699)"><path class="outline" fill="#C990C0" stroke="none" d="M 40 1.5 L 222.08949275095767 1.5 L 222.08949275095767 -1.5 L 40 -1.5 Z M 261.0894927509577 1.5 L 443.17898550191535 1.5 L 443.17898550191535 4.5 L 452.17898550191535 0 L 443.17898550191535 -4.5 L 443.17898550191535 -1.5 L 261.0894927509577 -1.5 Z"/><text text-anchor="middle" pointer-events="none" font-size="8px" fill="#000000" x="241.58949275095767" y="3" font-family="sans-serif">SENDER</text></g><g class="relationship" transform="translate(-57.399930436866555 252.02793846937493) rotate(361.49346399606816)"><path class="outline" fill="#8DCC93" stroke="none" d="M 40 1.5 L 138.1700528254697 1.5 L 138.1700528254697 -1.5 L 40 -1.5 Z M 184.1700528254697 1.5 L 282.3401056509394 1.5 L 282.3401056509394 4.5 L 291.3401056509394 0 L 282.3401056509394 -4.5 L 282.3401056509394 -1.5 L 184.1700528254697 -1.5 Z"/><text text-anchor="middle" pointer-events="none" font-size="8px" fill="#000000" x="161.1700528254697" y="3" font-family="sans-serif">RECEIVER</text></g><g class="relationship" transform="translate(-57.399930436866555 252.02793846937493) rotate(324.9625601416725)"><path class="outline" fill="#C990C0" stroke="none" d="M 40 1.5 L 182.9839861320335 1.5 L 182.9839861320335 -1.5 L 40 -1.5 Z M 221.9839861320335 1.5 L 364.967972264067 1.5 L 364.967972264067 4.5 L 373.967972264067 0 L 364.967972264067 -4.5 L 364.967972264067 -1.5 L 221.9839861320335 -1.5 Z"/><text text-anchor="middle" pointer-events="none" font-size="8px" fill="#000000" x="202.4839861320335" y="3" font-family="sans-serif">SENDER</text></g><g class="relationship" transform="translate(-57.399930436866555 252.02793846937493) rotate(207.22700554867424)"><path class="outline" fill="#D9C8AE" stroke="none" d="M 40 1.5 L 99.54172124185075 1.5 L 99.54172124185075 -1.5 L 40 -1.5 Z M 125.54172124185075 1.5 L 185.0834424837015 1.5 L 185.0834424837015 4.5 L 194.0834424837015 0 L 185.0834424837015 -4.5 L 185.0834424837015 -1.5 L 125.54172124185075 -1.5 Z"/><text text-anchor="middle" pointer-events="none" font-size="8px" fill="#000000" x="112.54172124185075" y="3" transform="rotate(180 112.54172124185075 0)" font-family="sans-serif">DATE</text></g><g class="relationship" transform="translate(-57.399930436866555 252.02793846937493) rotate(239.61962246298492)"><path class="outline" fill="#DA7194" stroke="none" d="M 40 1.5 L 149.3366570475442 1.5 L 149.3366570475442 -1.5 L 40 -1.5 Z M 196.3366570475442 1.5 L 305.6733140950884 1.5 L 305.6733140950884 4.5 L 314.6733140950884 0 L 305.6733140950884 -4.5 L 305.6733140950884 -1.5 L 196.3366570475442 -1.5 Z"/><text text-anchor="middle" pointer-events="none" font-size="8px" fill="#000000" x="172.8366570475442" y="3" transform="rotate(180 172.8366570475442 0)" font-family="sans-serif">EDITED_IN</text></g><g class="relationship" transform="translate(-57.399930436866555 252.02793846937493) rotate(474.3241737208051)"><path class="outline" fill="#57C7E3" stroke="none" d="M 40 1.5 L 41.72981429329276 1.5 L 41.72981429329276 -1.5 L 40 -1.5 Z M 77.72981429329276 1.5 L 79.45962858658552 1.5 L 79.45962858658552 4.5 L 88.45962858658552 0 L 79.45962858658552 -4.5 L 79.45962858658552 -1.5 L 77.72981429329276 -1.5 Z"/><text text-anchor="middle" pointer-events="none" font-size="8px" fill="#000000" x="59.72981429329276" y="3" transform="rotate(180 59.72981429329276 0)" font-family="sans-serif">KEYW…</text></g><g class="relationship" transform="translate(-57.399930436866555 252.02793846937493) rotate(419.4479982045301)"><path class="outline" fill="#57C7E3" stroke="none" d="M 40 1.5 L 52.00743986327734 1.5 L 52.00743986327734 -1.5 L 40 -1.5 Z M 98.00743986327734 1.5 L 110.01487972655468 1.5 L 110.01487972655468 4.5 L 119.01487972655468 0 L 110.01487972655468 -4.5 L 110.01487972655468 -1.5 L 98.00743986327734 -1.5 Z"/><text text-anchor="middle" pointer-events="none" font-size="8px" fill="#000000" x="75.00743986327734" y="3" font-family="sans-serif">KEYWORD</text></g><g class="relationship" transform="translate(-57.399930436866555 252.02793846937493) rotate(527.8846745375262)"><path class="outline" fill="#57C7E3" stroke="none" d="M 40 1.5 L 51.469098153928385 1.5 L 51.469098153928385 -1.5 L 40 -1.5 Z M 97.46909815392839 1.5 L 108.93819630785677 1.5 L 108.93819630785677 4.5 L 117.93819630785677 0 L 108.93819630785677 -4.5 L 108.93819630785677 -1.5 L 97.46909815392839 -1.5 Z"/><text text-anchor="middle" pointer-events="none" font-size="8px" fill="#000000" x="74.46909815392839" y="3" transform="rotate(180 74.46909815392839 0)" font-family="sans-serif">KEYWORD</text></g><g class="relationship" transform="translate(-17.864084210315013 133.0417228894768) rotate(220.50316910611707)"><path class="outline" fill="#DA7194" stroke="none" d="M 40 1.5 L 115.9481623371727 1.5 L 115.9481623371727 -1.5 L 40 -1.5 Z M 162.9481623371727 1.5 L 238.8963246743454 1.5 L 238.8963246743454 4.5 L 247.8963246743454 0 L 238.8963246743454 -4.5 L 238.8963246743454 -1.5 L 162.9481623371727 -1.5 Z"/><text text-anchor="middle" pointer-events="none" font-size="8px" fill="#000000" x="139.4481623371727" y="3" transform="rotate(180 139.4481623371727 0)" font-family="sans-serif">EDITED_IN</text></g><g class="relationship" transform="translate(-17.864084210315013 133.0417228894768) rotate(338.3781432944031)"><path class="outline" fill="#8DCC93" stroke="none" d="M 40 1.5 L 133.537029137567 1.5 L 133.537029137567 -1.5 L 40 -1.5 Z M 179.537029137567 1.5 L 273.074058275134 1.5 L 273.074058275134 4.5 L 282.074058275134 0 L 273.074058275134 -4.5 L 273.074058275134 -1.5 L 179.537029137567 -1.5 Z"/><text text-anchor="middle" pointer-events="none" font-size="8px" fill="#000000" x="156.537029137567" y="3" font-family="sans-serif">RECEIVER</text></g><g class="relationship" transform="translate(-17.864084210315013 133.0417228894768) rotate(537.251853110514)"><path class="outline" fill="#D9C8AE" stroke="none" d="M 40 1.5 L 106.48410798875554 1.5 L 106.48410798875554 -1.5 L 40 -1.5 Z M 132.48410798875554 1.5 L 198.96821597751108 1.5 L 198.96821597751108 4.5 L 207.96821597751108 0 L 198.96821597751108 -4.5 L 198.96821597751108 -1.5 L 132.48410798875554 -1.5 Z"/><text text-anchor="middle" pointer-events="none" font-size="8px" fill="#000000" x="119.48410798875554" y="3" transform="rotate(180 119.48410798875554 0)" font-family="sans-serif">DATE</text></g><g class="relationship" transform="translate(-49.61269728235152 -27.75824163528162) rotate(187.96467788989048)"><path class="outline" fill="#DA7194" stroke="none" d="M 40 1.5 L 66.49105484051172 1.5 L 66.49105484051172 -1.5 L 40 -1.5 Z M 113.49105484051172 1.5 L 139.98210968102345 1.5 L 139.98210968102345 4.5 L 148.98210968102345 0 L 139.98210968102345 -4.5 L 139.98210968102345 -1.5 L 113.49105484051172 -1.5 Z"/><text text-anchor="middle" pointer-events="none" font-size="8px" fill="#000000" x="89.99105484051172" y="3" transform="rotate(180 89.99105484051172 0)" font-family="sans-serif">EDITED_IN</text></g><g class="relationship" transform="translate(-49.61269728235152 -27.75824163528162) rotate(367.2488874387371)"><path class="outline" fill="#C990C0" stroke="none" d="M 40 1.5 L 142.91420287693612 1.5 L 142.91420287693612 -1.5 L 40 -1.5 Z M 181.91420287693612 1.5 L 284.82840575387223 1.5 L 284.82840575387223 4.5 L 293.82840575387223 0 L 284.82840575387223 -4.5 L 284.82840575387223 -1.5 L 181.91420287693612 -1.5 Z"/><text text-anchor="middle" pointer-events="none" font-size="8px" fill="#000000" x="162.41420287693612" y="3" font-family="sans-serif">SENDER</text></g><g class="relationship" transform="translate(-49.61269728235152 -27.75824163528162) rotate(501.3496634132119)"><path class="outline" fill="#D9C8AE" stroke="none" d="M 40 1.5 L 120.74721318350211 1.5 L 120.74721318350211 -1.5 L 40 -1.5 Z M 146.7472131835021 1.5 L 227.49442636700422 1.5 L 227.49442636700422 4.5 L 236.49442636700422 0 L 227.49442636700422 -4.5 L 227.49442636700422 -1.5 L 146.7472131835021 -1.5 Z"/><text text-anchor="middle" pointer-events="none" font-size="8px" fill="#000000" x="133.7472131835021" y="3" transform="rotate(180 133.7472131835021 0)" font-family="sans-serif">DATE</text></g><g class="relationship" transform="translate(6.113177723159254 -152.33653183876666) rotate(517.9471860940296)"><path class="outline" fill="#DA7194" stroke="none" d="M 40 1.5 L 103.0288105417103 1.5 L 103.0288105417103 -1.5 L 40 -1.5 Z M 150.0288105417103 1.5 L 213.0576210834206 1.5 L 213.0576210834206 4.5 L 222.0576210834206 0 L 213.0576210834206 -4.5 L 213.0576210834206 -1.5 L 150.0288105417103 -1.5 Z"/><text text-anchor="middle" pointer-events="none" font-size="8px" fill="#000000" x="126.5288105417103" y="3" transform="rotate(180 126.5288105417103 0)" font-family="sans-serif">EDITED_IN</text></g><g class="relationship" transform="translate(6.113177723159254 -152.33653183876666) rotate(492.4229001029349)"><path class="outline" fill="#D9C8AE" stroke="none" d="M 40 1.5 L 183.8499209534177 1.5 L 183.8499209534177 -1.5 L 40 -1.5 Z M 209.8499209534177 1.5 L 353.6998419068354 1.5 L 353.6998419068354 4.5 L 362.6998419068354 0 L 353.6998419068354 -4.5 L 353.6998419068354 -1.5 L 209.8499209534177 -1.5 Z"/><text text-anchor="middle" pointer-events="none" font-size="8px" fill="#000000" x="196.8499209534177" y="3" transform="rotate(180 196.8499209534177 0)" font-family="sans-serif">DATE</text></g><g class="relationship" transform="translate(6.113177723159254 -152.33653183876666) rotate(391.18351027195126)"><path class="outline" fill="#8DCC93" stroke="none" d="M 40 1.5 L 133.47608866583798 1.5 L 133.47608866583798 -1.5 L 40 -1.5 Z M 179.47608866583798 1.5 L 272.95217733167595 1.5 L 272.95217733167595 4.5 L 281.95217733167595 0 L 272.95217733167595 -4.5 L 272.95217733167595 -1.5 L 179.47608866583798 -1.5 Z"/><text text-anchor="middle" pointer-events="none" font-size="8px" fill="#000000" x="156.47608866583798" y="3" font-family="sans-serif">RECEIVER</text></g><g class="relationship" transform="translate(-17.864084210315013 133.0417228894768) rotate(318.0878105530408)"><path class="outline" fill="#57C7E3" stroke="none" d="M 40 1.5 L 46.344345220346355 1.5 L 46.344345220346355 -1.5 L 40 -1.5 Z M 92.34434522034636 1.5 L 98.68869044069271 1.5 L 98.68869044069271 4.5 L 107.68869044069271 0 L 98.68869044069271 -4.5 L 98.68869044069271 -1.5 L 92.34434522034636 -1.5 Z"/><text text-anchor="middle" pointer-events="none" font-size="8px" fill="#000000" x="69.34434522034636" y="3" font-family="sans-serif">KEYWORD</text></g><g class="relationship" transform="translate(-49.61269728235152 -27.75824163528162) rotate(386.26745399925426)"><path class="outline" fill="#57C7E3" stroke="none" d="M 40 1.5 L 52.12096735444106 1.5 L 52.12096735444106 -1.5 L 40 -1.5 Z M 98.12096735444106 1.5 L 110.24193470888213 1.5 L 110.24193470888213 4.5 L 119.24193470888213 0 L 110.24193470888213 -4.5 L 110.24193470888213 -1.5 L 98.12096735444106 -1.5 Z"/><text text-anchor="middle" pointer-events="none" font-size="8px" fill="#000000" x="75.12096735444106" y="3" font-family="sans-serif">KEYWORD</text></g><g class="relationship" transform="translate(6.113177723159254 -152.33653183876666) rotate(427.26363473794754)"><path class="outline" fill="#57C7E3" stroke="none" d="M 40 1.5 L 80.1939161907232 1.5 L 80.1939161907232 -1.5 L 40 -1.5 Z M 126.1939161907232 1.5 L 166.3878323814464 1.5 L 166.3878323814464 4.5 L 175.3878323814464 0 L 166.3878323814464 -4.5 L 166.3878323814464 -1.5 L 126.1939161907232 -1.5 Z"/><text text-anchor="middle" pointer-events="none" font-size="8px" fill="#000000" x="103.1939161907232" y="3" font-family="sans-serif">KEYWORD</text></g><g class="relationship" transform="translate(6.113177723159254 -152.33653183876666) rotate(362.4895127956703)"><path class="outline" fill="#57C7E3" stroke="none" d="M 40 1.5 L 70.47430616151671 1.5 L 70.47430616151671 -1.5 L 40 -1.5 Z M 116.47430616151671 1.5 L 146.94861232303342 1.5 L 146.94861232303342 4.5 L 155.94861232303342 0 L 146.94861232303342 -4.5 L 146.94861232303342 -1.5 L 116.47430616151671 -1.5 Z"/><text text-anchor="middle" pointer-events="none" font-size="8px" fill="#000000" x="93.47430616151671" y="3" font-family="sans-serif">KEYWORD</text></g></g><g class="layer nodes"><g class="node" transform="translate(281.54755155777974,14.364128624644323)"><circle class="outline" cx="0" cy="0" r="40" fill="#4C8EDA" stroke="#2870c2" stroke-width="2px"/><text text-anchor="middle" pointer-events="none" font-family="sans-serif" dy="2.5" font-size="40" fill="#FFFFFF"/><text text-anchor="middle" pointer-events="none" y="5" font-size="10px" fill="#FFFFFF" font-family="sans-serif"> Augustinus</text></g><g class="node" transform="translate(273.82762050471035,260.66362663076495)"><circle class="outline" cx="0" cy="0" r="40" fill="#4C8EDA" stroke="#2870c2" stroke-width="2px"/><text text-anchor="middle" pointer-events="none" font-family="sans-serif" dy="2.5" font-size="40" fill="#FFFFFF"/><text text-anchor="middle" pointer-events="none" y="5" font-size="10px" fill="#FFFFFF" font-family="sans-serif"> Macedonius</text></g><g class="node" transform="translate(-17.864084210315013,133.0417228894768)"><circle class="outline" cx="0" cy="0" r="40" fill="#F16667" stroke="#eb2728" stroke-width="2px"/><text text-anchor="middle" pointer-events="none" font-family="sans-serif" dy="2.5" font-size="40" fill="#FFFFFF"/><text text-anchor="middle" pointer-events="none" y="5" font-size="10px" fill="#FFFFFF" font-family="sans-serif"> 413/414</text></g><g class="node" transform="translate(-49.61269728235152,-27.75824163528162)"><circle class="outline" cx="0" cy="0" r="40" fill="#F16667" stroke="#eb2728" stroke-width="2px"/><text text-anchor="middle" pointer-events="none" font-family="sans-serif" dy="2.5" font-size="40" fill="#FFFFFF"/><text text-anchor="middle" pointer-events="none" y="5" font-size="10px" fill="#FFFFFF" font-family="sans-serif"> 413/414</text></g><g class="node" transform="translate(6.113177723159254,-152.33653183876666)"><circle class="outline" cx="0" cy="0" r="40" fill="#F16667" stroke="#eb2728" stroke-width="2px"/><text text-anchor="middle" pointer-events="none" font-family="sans-serif" dy="2.5" font-size="40" fill="#FFFFFF"/><text text-anchor="middle" pointer-events="none" y="5" font-size="10px" fill="#FFFFFF" font-family="sans-serif"> 413/414</text></g><g class="node" transform="translate(-57.399930436866555,252.02793846937493)"><circle class="outline" cx="0" cy="0" r="40" fill="#F16667" stroke="#eb2728" stroke-width="2px"/><text text-anchor="middle" pointer-events="none" font-family="sans-serif" dy="2.5" font-size="40" fill="#FFFFFF"/><text text-anchor="middle" pointer-events="none" y="5" font-size="10px" fill="#FFFFFF" font-family="sans-serif"> 413/414</text></g><g class="node" transform="translate(-265.5471212943472,144.93076304835876)"><circle class="outline" cx="0" cy="0" r="40" fill="#D9C8AE" stroke="#c0a378" stroke-width="2px"/><text text-anchor="middle" pointer-events="none" font-family="sans-serif" dy="2.5" font-size="40" fill="#604A0E"/><text text-anchor="middle" pointer-events="none" y="5" font-size="10px" fill="#604A0E" font-family="sans-serif"> 413/414</text></g><g class="node" transform="translate(-236.7718248666409,-53.94409165734616)"><circle class="outline" cx="0" cy="0" r="40" fill="#DA7194" stroke="#cc3c6c" stroke-width="2px"/><text text-anchor="middle" pointer-events="none" font-family="sans-serif" dy="2.5" font-size="40" fill="#FFFFFF"/><text text-anchor="middle" pointer-events="none" y="5" font-size="10px" fill="#FFFFFF" font-family="sans-serif"> 44</text></g><g class="node" transform="translate(-107.22306271747404,362.2499291860818)"><circle class="outline" cx="0" cy="0" r="32.5" fill="#57C7E3" stroke="#23b3d7" stroke-width="2px"/><text text-anchor="middle" pointer-events="none" font-family="sans-serif" dy="2.03125" font-size="32.5" fill="#FFFFFF"/><text text-anchor="middle" pointer-events="none" y="5" font-size="10px" fill="#FFFFFF" font-family="sans-serif"> Philosophie</text></g><g class="node" transform="translate(19.618139079368774,382.50772903689796)"><circle class="outline" cx="0" cy="0" r="32.5" fill="#57C7E3" stroke="#23b3d7" stroke-width="2px"/><text text-anchor="middle" pointer-events="none" font-family="sans-serif" dy="2.03125" font-size="32.5" fill="#FFFFFF"/><text text-anchor="middle" pointer-events="none" y="5" font-size="10px" fill="#FFFFFF" font-family="sans-serif"> Donatisten</text></g><g class="node" transform="translate(-204.48743681480968,283.6019210480708)"><circle class="outline" cx="0" cy="0" r="32.5" fill="#57C7E3" stroke="#23b3d7" stroke-width="2px"/><text text-anchor="middle" pointer-events="none" font-family="sans-serif" dy="2.03125" font-size="32.5" fill="#FFFFFF"/><text text-anchor="middle" pointer-events="none" y="5" font-size="10px" fill="#FFFFFF" font-family="sans-serif"> Politik</text></g><g class="node" transform="translate(86.46005654849617,39.39695484335411)"><circle class="outline" cx="0" cy="0" r="32.5" fill="#57C7E3" stroke="#23b3d7" stroke-width="2px"/><text text-anchor="middle" pointer-events="none" font-family="sans-serif" dy="2.03125" font-size="32.5" fill="#FFFFFF"/><text text-anchor="middle" pointer-events="none" y="5" font-size="10px" fill="#FFFFFF" font-family="sans-serif"> Recht</text></g><g class="node" transform="translate(194.383930130639,-144.15097905362046)"><circle class="outline" cx="0" cy="0" r="32.5" fill="#57C7E3" stroke="#23b3d7" stroke-width="2px"/><text text-anchor="middle" pointer-events="none" font-family="sans-serif" dy="2.03125" font-size="32.5" fill="#FFFFFF"/><text text-anchor="middle" pointer-events="none" y="5" font-size="10px" fill="#FFFFFF" font-family="sans-serif"> Kommunik…</text></g></g></svg>