<svg xmlns="http://www.w3.org/2000/svg" width="282.302490234375" height="314.35601806640625" viewBox="-39.577064514160156 -59.54595947265625 282.302490234375 314.35601806640625"><title>Neo4j Graph Visualization</title><desc>Created using Neo4j (http://www.neo4j.com/)</desc><g class="layer relationships"><g class="relationship" transform="translate(98.15235409482118 91.78659442562547) rotate(226.82044155078933)"><path class="outline" fill="#D9C8AE" stroke="none" d="M 40 2.5 L 49.98692120339679 2.5 L 49.98692120339679 -2.5 L 40 -2.5 Z M 75.98692120339679 2.5 L 85.97384240679358 2.5 L 85.97384240679358 5.5 L 96.97384240679358 0 L 85.97384240679358 -5.5 L 85.97384240679358 -2.5 L 75.98692120339679 -2.5 Z"/><text text-anchor="middle" pointer-events="none" font-size="8px" fill="#000000" x="62.98692120339679" y="3" transform="rotate(180 62.98692120339679 0)" font-family="sans-serif">DATE</text></g><g class="relationship" transform="translate(98.15235409482118 91.78659442562547) rotate(313.1378488905027)"><path class="outline" fill="#C990C0" stroke="none" d="M 37.98998543880643,-12.7675763698235 L 39.284080664319035,-7.937947238378159 A 119.22541686822412 119.22541686822412 0 0 1 49.002749380057395,-10.111463629297319 L 48.11622952609834,-15.0322443141619 A 124.22541686822412 124.22541686822412 0 0 0 37.98998543880643,-12.7675763698235 Z M 87.74074020816612,-15.747533395167537 L 87.03239680140855,-10.797962745292637 A 119.22541686822412 119.22541686822412 0 0 1 96.82317935925425,-8.976624772029563 L 96.1518135334931,-6.052711652937268 L 108.10366565072698,-8.951544343482201 L 98.6134882279507,-16.773726422942346 L 97.94212240218954,-13.849813303850052 A 124.22541686822412 124.22541686822412 0 0 0 87.74074020816612,-15.747533395167537"/><text text-anchor="middle" pointer-events="none" font-size="8px" fill="#000000" x="67.94489857819745" y="-11.480626730151272" font-family="sans-serif">SENDER</text></g><g class="relationship" transform="translate(98.15235409482118 91.78659442562547) rotate(488.99438598008226)"><path class="outline" fill="#DA7194" stroke="none" d="M 40 2.5 L 43.57490302625111 2.5 L 43.57490302625111 -2.5 L 40 -2.5 Z M 90.5749030262511 2.5 L 94.14980605250221 2.5 L 94.14980605250221 5.5 L 105.14980605250221 0 L 94.14980605250221 -5.5 L 94.14980605250221 -2.5 L 90.5749030262511 -2.5 Z"/><text text-anchor="middle" pointer-events="none" font-size="8px" fill="#000000" x="67.0749030262511" y="3" transform="rotate(180 67.0749030262511 0)" font-family="sans-serif">EDITED_IN</text></g><g class="relationship" transform="translate(98.15235409482118 91.78659442562547) rotate(411.50207315293295)"><path class="outline" fill="#57C7E3" stroke="none" d="M 40 2.5 L 47.540636803324475 2.5 L 47.540636803324475 -2.5 L 40 -2.5 Z M 93.54063680332447 2.5 L 101.08127360664895 2.5 L 101.08127360664895 5.5 L 112.08127360664895 0 L 101.08127360664895 -5.5 L 101.08127360664895 -2.5 L 93.54063680332447 -2.5 Z"/><text text-anchor="middle" pointer-events="none" font-size="8px" fill="#000000" x="70.54063680332447" y="3" font-family="sans-serif">KEYWORD</text></g><g class="relationship" transform="translate(98.15235409482118 91.78659442562547) rotate(313.1378488905027)"><path class="outline" fill="#8DCC93" stroke="none" d="M 37.98998543880643,12.7675763698235 L 39.284080664319035,7.937947238378159 A 119.22541686822412 119.22541686822412 0 0 0 45.63814973075906,9.455228108806494 L 44.61052742827523,14.34848800415621 A 124.22541686822412 124.22541686822412 0 0 1 37.98998543880643,12.7675763698235 Z M 91.26883615325127,15.190748973306029 L 90.41848895878141,10.263588569091723 A 119.22541686822412 119.22541686822412 0 0 0 96.82317935925425,8.976624772029563 L 96.1518135334931,6.052711652937268 L 108.10366565072698,8.951544343482201 L 98.6134882279507,16.773726422942346 L 97.94212240218954,13.849813303850052 A 124.22541686822412 124.22541686822412 0 0 1 91.26883615325127,15.190748973306029"/><text text-anchor="middle" pointer-events="none" font-size="8px" fill="#000000" x="67.94489857819745" y="17.480626730151272" font-family="sans-serif">RECEIVER</text></g></g><g class="layer nodes"><g class="node" transform="translate(98.15235409482118,91.78659442562547)"><circle class="outline" cx="0" cy="0" r="40" fill="#F16667" stroke="#eb2728" stroke-width="2px"/><text text-anchor="middle" pointer-events="none" font-family="sans-serif" dy="2.5" font-size="40" fill="#FFFFFF"/><text text-anchor="middle" pointer-events="none" y="5" font-size="10px" fill="#FFFFFF" font-family="sans-serif"> Letter</text></g><g class="node" transform="translate(192.82086626816897,210.81006515600336)"><circle class="outline" cx="0" cy="0" r="40" fill="#57C7E3" stroke="#23b3d7" stroke-width="2px"/><text text-anchor="middle" pointer-events="none" font-family="sans-serif" dy="2.5" font-size="40" fill="#FFFFFF"/><text text-anchor="middle" pointer-events="none" y="5" font-size="10px" fill="#FFFFFF" font-family="sans-serif"> Keyword</text></g><g class="node" transform="translate(198.72545352530744,-15.545957724625847)"><circle class="outline" cx="0" cy="0" r="40" fill="#4C8EDA" stroke="#2870c2" stroke-width="2px"/><text text-anchor="middle" pointer-events="none" font-family="sans-serif" dy="2.5" font-size="40" fill="#FFFFFF"/><text text-anchor="middle" pointer-events="none" y="5" font-size="10px" fill="#FFFFFF" font-family="sans-serif"> Person</text></g><g class="node" transform="translate(4.422936244152567,-8.09648588858935)"><circle class="outline" cx="0" cy="0" r="40" fill="#D9C8AE" stroke="#c0a378" stroke-width="2px"/><text text-anchor="middle" pointer-events="none" font-family="sans-serif" dy="2.5" font-size="40" fill="#604A0E"/><text text-anchor="middle" pointer-events="none" y="5" font-size="10px" fill="#604A0E" font-family="sans-serif"> Date</text></g><g class="node" transform="translate(6.8176745781403305,204.5981298050547)"><circle class="outline" cx="0" cy="0" r="40" fill="#DA7194" stroke="#cc3c6c" stroke-width="2px"/><text text-anchor="middle" pointer-events="none" font-family="sans-serif" dy="2.5" font-size="40" fill="#FFFFFF"/><text text-anchor="middle" pointer-events="none" y="5" font-size="10px" fill="#FFFFFF" font-family="sans-serif"> Edition</text></g></g></svg>