<svg xmlns="http://www.w3.org/2000/svg" width="805.3900146484375" height="604.575927734375" viewBox="-490.5424499511719 -132.15176391601562 805.3900146484375 604.575927734375"><title>Neo4j Graph Visualization</title><desc>Created using Neo4j (http://www.neo4j.com/)</desc><g class="layer relationships"><g class="relationship" transform="translate(-98.40409878025059 -88.15175750272283) rotate(403.1544602703986)"><path class="outline" fill="#C990C0" stroke="none" d="M 40 2.5 L 223.44713932463708 2.5 L 223.44713932463708 -2.5 L 40 -2.5 Z M 262.4471393246371 2.5 L 445.89427864927416 2.5 L 445.89427864927416 5.5 L 456.89427864927416 0 L 445.89427864927416 -5.5 L 445.89427864927416 -2.5 L 262.4471393246371 -2.5 Z"/><text text-anchor="middle" pointer-events="none" font-size="8px" fill="#000000" x="242.94713932463708" y="3" font-family="sans-serif">SENDER</text></g><g class="relationship" transform="translate(-99.44437840984557 32.25165837051853) rotate(391.11851827994434)"><path class="outline" fill="#8DCC93" stroke="none" d="M 40 2.5 L 183.81796584660046 2.5 L 183.81796584660046 -2.5 L 40 -2.5 Z M 229.81796584660046 2.5 L 373.6359316932009 2.5 L 373.6359316932009 5.5 L 384.6359316932009 0 L 373.6359316932009 -5.5 L 373.6359316932009 -2.5 L 229.81796584660046 -2.5 Z"/><text text-anchor="middle" pointer-events="none" font-size="8px" fill="#000000" x="206.81796584660046" y="3" font-family="sans-serif">RECEIVER</text></g><g class="relationship" transform="translate(-100.68616391160086 141.6167115250554) rotate(376.79419998480466)"><path class="outline" fill="#C990C0" stroke="none" d="M 40 2.5 L 165.51189339402092 2.5 L 165.51189339402092 -2.5 L 40 -2.5 Z M 204.51189339402092 2.5 L 330.02378678804183 2.5 L 330.02378678804183 5.5 L 341.02378678804183 0 L 330.02378678804183 -5.5 L 330.02378678804183 -2.5 L 204.51189339402092 -2.5 Z"/><text text-anchor="middle" pointer-events="none" font-size="8px" fill="#000000" x="185.01189339402092" y="3" font-family="sans-serif">SENDER</text></g><g class="relationship" transform="translate(-99.81108886221605 263.3695919024484) rotate(358.16447188137374)"><path class="outline" fill="#8DCC93" stroke="none" d="M 40 2.5 L 153.54219318964925 2.5 L 153.54219318964925 -2.5 L 40 -2.5 Z M 199.54219318964925 2.5 L 313.0843863792985 2.5 L 313.0843863792985 5.5 L 324.0843863792985 0 L 313.0843863792985 -5.5 L 313.0843863792985 -2.5 L 199.54219318964925 -2.5 Z"/><text text-anchor="middle" pointer-events="none" font-size="8px" fill="#000000" x="176.54219318964925" y="3" font-family="sans-serif">RECEIVER</text></g><g class="relationship" transform="translate(-98.40409878025059 -88.15175750272283) rotate(365.9034588445196)"><path class="outline" fill="#8DCC93" stroke="none" d="M 40 2.5 L 157.11022080736635 2.5 L 157.11022080736635 -2.5 L 40 -2.5 Z M 203.11022080736635 2.5 L 320.2204416147327 2.5 L 320.2204416147327 5.5 L 331.2204416147327 0 L 320.2204416147327 -5.5 L 320.2204416147327 -2.5 L 203.11022080736635 -2.5 Z"/><text text-anchor="middle" pointer-events="none" font-size="8px" fill="#000000" x="180.11022080736635" y="3" font-family="sans-serif">RECEIVER</text></g><g class="relationship" transform="translate(-98.40409878025059 -88.15175750272283) rotate(532.0838163559629)"><path class="outline" fill="#D9C8AE" stroke="none" d="M 40 2.5 L 157.24391602106965 2.5 L 157.24391602106965 -2.5 L 40 -2.5 Z M 183.24391602106965 2.5 L 300.4878320421393 2.5 L 300.4878320421393 5.5 L 311.4878320421393 0 L 300.4878320421393 -5.5 L 300.4878320421393 -2.5 L 183.24391602106965 -2.5 Z"/><text text-anchor="middle" pointer-events="none" font-size="8px" fill="#000000" x="170.24391602106965" y="3" transform="rotate(180 170.24391602106965 0)" font-family="sans-serif">DATE</text></g><g class="relationship" transform="translate(-98.40409878025059 -88.15175750272283) rotate(493.67628950562363)"><path class="outline" fill="#DA7194" stroke="none" d="M 40 2.5 L 217.57392373320513 2.5 L 217.57392373320513 -2.5 L 40 -2.5 Z M 264.5739237332051 2.5 L 442.14784746641027 2.5 L 442.14784746641027 5.5 L 453.14784746641027 0 L 442.14784746641027 -5.5 L 442.14784746641027 -2.5 L 264.5739237332051 -2.5 Z"/><text text-anchor="middle" pointer-events="none" font-size="8px" fill="#000000" x="241.07392373320513" y="3" transform="rotate(180 241.07392373320513 0)" font-family="sans-serif">EDITED_IN</text></g><g class="relationship" transform="translate(-98.40409878025059 -88.15175750272283) rotate(422.745191718356)"><path class="outline" fill="#57C7E3" stroke="none" d="M 40 2.5 L 259.24960509591574 2.5 L 259.24960509591574 -2.5 L 40 -2.5 Z M 305.24960509591574 2.5 L 524.4992101918315 2.5 L 524.4992101918315 5.5 L 535.4992101918315 0 L 524.4992101918315 -5.5 L 524.4992101918315 -2.5 L 305.24960509591574 -2.5 Z"/><text text-anchor="middle" pointer-events="none" font-size="8px" fill="#000000" x="282.24960509591574" y="3" font-family="sans-serif">KEYWORD</text></g><g class="relationship" transform="translate(-99.44437840984557 32.25165837051853) rotate(415.92764020500294)"><path class="outline" fill="#57C7E3" stroke="none" d="M 40 2.5 L 207.63946261238777 2.5 L 207.63946261238777 -2.5 L 40 -2.5 Z M 253.63946261238777 2.5 L 421.27892522477555 2.5 L 421.27892522477555 5.5 L 432.27892522477555 0 L 421.27892522477555 -5.5 L 421.27892522477555 -2.5 L 253.63946261238777 -2.5 Z"/><text text-anchor="middle" pointer-events="none" font-size="8px" fill="#000000" x="230.63946261238777" y="3" font-family="sans-serif">KEYWORD</text></g><g class="relationship" transform="translate(-99.44437840984557 32.25165837051853) rotate(505.1664273646827)"><path class="outline" fill="#DA7194" stroke="none" d="M 40 2.5 L 177.81850702809976 2.5 L 177.81850702809976 -2.5 L 40 -2.5 Z M 224.81850702809976 2.5 L 362.6370140561995 2.5 L 362.6370140561995 5.5 L 373.6370140561995 0 L 362.6370140561995 -5.5 L 362.6370140561995 -2.5 L 224.81850702809976 -2.5 Z"/><text text-anchor="middle" pointer-events="none" font-size="8px" fill="#000000" x="201.31850702809976" y="3" transform="rotate(180 201.31850702809976 0)" font-family="sans-serif">EDITED_IN</text></g><g class="relationship" transform="translate(-99.44437840984557 32.25165837051853) rotate(347.48072911755605)"><path class="outline" fill="#C990C0" stroke="none" d="M 40 2.5 L 164.65540446043576 2.5 L 164.65540446043576 -2.5 L 40 -2.5 Z M 203.65540446043576 2.5 L 328.3108089208715 2.5 L 328.3108089208715 5.5 L 339.3108089208715 0 L 328.3108089208715 -5.5 L 328.3108089208715 -2.5 L 203.65540446043576 -2.5 Z"/><text text-anchor="middle" pointer-events="none" font-size="8px" fill="#000000" x="184.15540446043576" y="3" font-family="sans-serif">SENDER</text></g><g class="relationship" transform="translate(-99.44437840984557 32.25165837051853) rotate(191.71811208676274)"><path class="outline" fill="#D9C8AE" stroke="none" d="M 40 2.5 L 158.74302497755974 2.5 L 158.74302497755974 -2.5 L 40 -2.5 Z M 184.74302497755974 2.5 L 303.4860499551195 2.5 L 303.4860499551195 5.5 L 314.4860499551195 0 L 303.4860499551195 -5.5 L 303.4860499551195 -2.5 L 184.74302497755974 -2.5 Z"/><text text-anchor="middle" pointer-events="none" font-size="8px" fill="#000000" x="171.74302497755974" y="3" transform="rotate(180 171.74302497755974 0)" font-family="sans-serif">DATE</text></g><g class="relationship" transform="translate(-100.68616391160086 141.6167115250554) rotate(406.6741359435997)"><path class="outline" fill="#57C7E3" stroke="none" d="M 40 2.5 L 165.21297312503393 2.5 L 165.21297312503393 -2.5 L 40 -2.5 Z M 211.21297312503393 2.5 L 336.42594625006785 2.5 L 336.42594625006785 5.5 L 347.42594625006785 0 L 336.42594625006785 -5.5 L 336.42594625006785 -2.5 L 211.21297312503393 -2.5 Z"/><text text-anchor="middle" pointer-events="none" font-size="8px" fill="#000000" x="188.21297312503393" y="3" font-family="sans-serif">KEYWORD</text></g><g class="relationship" transform="translate(-100.68616391160086 141.6167115250554) rotate(519.4368112631214)"><path class="outline" fill="#DA7194" stroke="none" d="M 40 2.5 L 151.64873210277509 2.5 L 151.64873210277509 -2.5 L 40 -2.5 Z M 198.64873210277509 2.5 L 310.29746420555017 2.5 L 310.29746420555017 5.5 L 321.29746420555017 0 L 310.29746420555017 -5.5 L 310.29746420555017 -2.5 L 198.64873210277509 -2.5 Z"/><text text-anchor="middle" pointer-events="none" font-size="8px" fill="#000000" x="175.14873210277509" y="3" transform="rotate(180 175.14873210277509 0)" font-family="sans-serif">EDITED_IN</text></g><g class="relationship" transform="translate(-100.68616391160086 141.6167115250554) rotate(207.67160760543533)"><path class="outline" fill="#D9C8AE" stroke="none" d="M 40 2.5 L 176.76139304152647 2.5 L 176.76139304152647 -2.5 L 40 -2.5 Z M 202.76139304152647 2.5 L 339.52278608305295 2.5 L 339.52278608305295 5.5 L 350.52278608305295 0 L 339.52278608305295 -5.5 L 339.52278608305295 -2.5 L 202.76139304152647 -2.5 Z"/><text text-anchor="middle" pointer-events="none" font-size="8px" fill="#000000" x="189.76139304152647" y="3" transform="rotate(180 189.76139304152647 0)" font-family="sans-serif">DATE</text></g><g class="relationship" transform="translate(-100.68616391160086 141.6167115250554) rotate(332.7213627756505)"><path class="outline" fill="#8DCC93" stroke="none" d="M 40 2.5 L 180.51143198413175 2.5 L 180.51143198413175 -2.5 L 40 -2.5 Z M 226.51143198413175 2.5 L 367.0228639682635 2.5 L 367.0228639682635 5.5 L 378.0228639682635 0 L 367.0228639682635 -5.5 L 367.0228639682635 -2.5 L 226.51143198413175 -2.5 Z"/><text text-anchor="middle" pointer-events="none" font-size="8px" fill="#000000" x="203.51143198413175" y="3" font-family="sans-serif">RECEIVER</text></g><g class="relationship" transform="translate(-99.81108886221605 263.3695919024484) rotate(539.1301532446089)"><path class="outline" fill="#DA7194" stroke="none" d="M 40 2.5 L 140.59585081399732 2.5 L 140.59585081399732 -2.5 L 40 -2.5 Z M 187.59585081399732 2.5 L 288.19170162799463 2.5 L 288.19170162799463 5.5 L 299.19170162799463 0 L 288.19170162799463 -5.5 L 288.19170162799463 -2.5 L 187.59585081399732 -2.5 Z"/><text text-anchor="middle" pointer-events="none" font-size="8px" fill="#000000" x="164.09585081399732" y="3" transform="rotate(180 164.09585081399732 0)" font-family="sans-serif">EDITED_IN</text></g><g class="relationship" transform="translate(-99.81108886221605 263.3695919024484) rotate(319.7901290178674)"><path class="outline" fill="#C990C0" stroke="none" d="M 40 2.5 L 217.67780148012685 2.5 L 217.67780148012685 -2.5 L 40 -2.5 Z M 256.67780148012685 2.5 L 434.3556029602537 2.5 L 434.3556029602537 5.5 L 445.3556029602537 0 L 434.3556029602537 -5.5 L 434.3556029602537 -2.5 L 256.67780148012685 -2.5 Z"/><text text-anchor="middle" pointer-events="none" font-size="8px" fill="#000000" x="237.17780148012685" y="3" font-family="sans-serif">SENDER</text></g><g class="relationship" transform="translate(-99.81108886221605 263.3695919024484) rotate(221.15998803529948)"><path class="outline" fill="#D9C8AE" stroke="none" d="M 40 2.5 L 211.7716291567197 2.5 L 211.7716291567197 -2.5 L 40 -2.5 Z M 237.7716291567197 2.5 L 409.5432583134394 2.5 L 409.5432583134394 5.5 L 420.5432583134394 0 L 409.5432583134394 -5.5 L 409.5432583134394 -2.5 L 237.7716291567197 -2.5 Z"/><text text-anchor="middle" pointer-events="none" font-size="8px" fill="#000000" x="224.7716291567197" y="3" transform="rotate(180 224.7716291567197 0)" font-family="sans-serif">DATE</text></g><g class="relationship" transform="translate(-100.68616391160086 141.6167115250554) rotate(487.5285836573879)"><path class="outline" fill="#57C7E3" stroke="none" d="M 40 2.5 L 146.8716565187779 2.5 L 146.8716565187779 -2.5 L 40 -2.5 Z M 192.8716565187779 2.5 L 299.7433130375558 2.5 L 299.7433130375558 5.5 L 310.7433130375558 0 L 299.7433130375558 -5.5 L 299.7433130375558 -2.5 L 192.8716565187779 -2.5 Z"/><text text-anchor="middle" pointer-events="none" font-size="8px" fill="#000000" x="169.8716565187779" y="3" transform="rotate(180 169.8716565187779 0)" font-family="sans-serif">KEYWORD</text></g><g class="relationship" transform="translate(-99.81108886221605 263.3695919024484) rotate(480.5682229451339)"><path class="outline" fill="#57C7E3" stroke="none" d="M 40 2.5 L 63.54455267824508 2.5 L 63.54455267824508 -2.5 L 40 -2.5 Z M 109.54455267824508 2.5 L 133.08910535649017 2.5 L 133.08910535649017 5.5 L 144.08910535649017 0 L 133.08910535649017 -5.5 L 133.08910535649017 -2.5 L 109.54455267824508 -2.5 Z"/><text text-anchor="middle" pointer-events="none" font-size="8px" fill="#000000" x="86.54455267824508" y="3" transform="rotate(180 86.54455267824508 0)" font-family="sans-serif">KEYWORD</text></g><g class="relationship" transform="translate(-99.81108886221605 263.3695919024484) rotate(439.23683134161524)"><path class="outline" fill="#57C7E3" stroke="none" d="M 40 2.5 L 55.5051321262915 2.5 L 55.5051321262915 -2.5 L 40 -2.5 Z M 101.5051321262915 2.5 L 117.010264252583 2.5 L 117.010264252583 5.5 L 128.010264252583 0 L 117.010264252583 -5.5 L 117.010264252583 -2.5 L 101.5051321262915 -2.5 Z"/><text text-anchor="middle" pointer-events="none" font-size="8px" fill="#000000" x="78.5051321262915" y="3" font-family="sans-serif">KEYWORD</text></g><g class="relationship" transform="translate(-99.81108886221605 263.3695919024484) rotate(407.16030341914666)"><path class="outline" fill="#57C7E3" stroke="none" d="M 40 2.5 L 81.89082066251102 2.5 L 81.89082066251102 -2.5 L 40 -2.5 Z M 127.89082066251102 2.5 L 169.78164132502204 2.5 L 169.78164132502204 5.5 L 180.78164132502204 0 L 169.78164132502204 -5.5 L 169.78164132502204 -2.5 L 127.89082066251102 -2.5 Z"/><text text-anchor="middle" pointer-events="none" font-size="8px" fill="#000000" x="104.89082066251102" y="3" font-family="sans-serif">KEYWORD</text></g></g><g class="layer nodes"><g class="node" transform="translate(270.8476160201216,-49.97077546163618)"><circle class="outline" cx="0" cy="0" r="40" fill="#4C8EDA" stroke="#2870c2" stroke-width="2px"/><text text-anchor="middle" pointer-events="none" font-family="sans-serif" dy="2.5" font-size="40" fill="#FFFFFF"/><text text-anchor="middle" pointer-events="none" y="5" font-size="10px" fill="#FFFFFF" font-family="sans-serif"> Augustinus</text></g><g class="node" transform="translate(264.08648252127216,251.7077761609168)"><circle class="outline" cx="0" cy="0" r="40" fill="#4C8EDA" stroke="#2870c2" stroke-width="2px"/><text text-anchor="middle" pointer-events="none" font-family="sans-serif" dy="2.5" font-size="40" fill="#FFFFFF"/><text text-anchor="middle" pointer-events="none" y="5" font-size="10px" fill="#FFFFFF" font-family="sans-serif"> Macedonius</text></g><g class="node" transform="translate(-98.40409878025059,-88.15175750272283)"><circle class="outline" cx="0" cy="0" r="40" fill="#F16667" stroke="#eb2728" stroke-width="2px"/><text text-anchor="middle" pointer-events="none" font-family="sans-serif" dy="2.5" font-size="40" fill="#FFFFFF"/><text text-anchor="middle" pointer-events="none" y="5" font-size="10px" fill="#FFFFFF" font-family="sans-serif"> 132</text></g><g class="node" transform="translate(-99.44437840984557,32.25165837051853)"><circle class="outline" cx="0" cy="0" r="40" fill="#F16667" stroke="#eb2728" stroke-width="2px"/><text text-anchor="middle" pointer-events="none" font-family="sans-serif" dy="2.5" font-size="40" fill="#FFFFFF"/><text text-anchor="middle" pointer-events="none" y="5" font-size="10px" fill="#FFFFFF" font-family="sans-serif"> 133</text></g><g class="node" transform="translate(-100.68616391160086,141.6167115250554)"><circle class="outline" cx="0" cy="0" r="40" fill="#F16667" stroke="#eb2728" stroke-width="2px"/><text text-anchor="middle" pointer-events="none" font-family="sans-serif" dy="2.5" font-size="40" fill="#FFFFFF"/><text text-anchor="middle" pointer-events="none" y="5" font-size="10px" fill="#FFFFFF" font-family="sans-serif"> 134</text></g><g class="node" transform="translate(-99.81108886221605,263.3695919024484)"><circle class="outline" cx="0" cy="0" r="40" fill="#F16667" stroke="#eb2728" stroke-width="2px"/><text text-anchor="middle" pointer-events="none" font-family="sans-serif" dy="2.5" font-size="40" fill="#FFFFFF"/><text text-anchor="middle" pointer-events="none" y="5" font-size="10px" fill="#FFFFFF" font-family="sans-serif"> 135</text></g><g class="node" transform="translate(-446.54246317905904,-39.743335638282986)"><circle class="outline" cx="0" cy="0" r="40" fill="#D9C8AE" stroke="#c0a378" stroke-width="2px"/><text text-anchor="middle" pointer-events="none" font-family="sans-serif" dy="2.5" font-size="40" fill="#604A0E"/><text text-anchor="middle" pointer-events="none" y="5" font-size="10px" fill="#604A0E" font-family="sans-serif"> 413/414</text></g><g class="node" transform="translate(-438.96370216055146,268.5188973123404)"><circle class="outline" cx="0" cy="0" r="40" fill="#DA7194" stroke="#cc3c6c" stroke-width="2px"/><text text-anchor="middle" pointer-events="none" font-family="sans-serif" dy="2.5" font-size="40" fill="#FFFFFF"/><text text-anchor="middle" pointer-events="none" y="5" font-size="10px" fill="#FFFFFF" font-family="sans-serif"> 44</text></g><g class="node" transform="translate(165.1449128634912,423.4547899466122)"><circle class="outline" cx="0" cy="0" r="40" fill="#57C7E3" stroke="#23b3d7" stroke-width="2px"/><text text-anchor="middle" pointer-events="none" font-family="sans-serif" dy="2.5" font-size="40" fill="#FFFFFF"/><text text-anchor="middle" pointer-events="none" y="5" font-size="10px" fill="#FFFFFF" font-family="sans-serif"> Recht</text></g><g class="node" transform="translate(-314.3439575333035,419.7735357542423)"><circle class="outline" cx="0" cy="0" r="40" fill="#57C7E3" stroke="#23b3d7" stroke-width="2px"/><text text-anchor="middle" pointer-events="none" font-family="sans-serif" dy="2.5" font-size="40" fill="#FFFFFF"/><text text-anchor="middle" pointer-events="none" y="5" font-size="10px" fill="#FFFFFF" font-family="sans-serif"> Kommunikation</text></g><g class="node" transform="translate(-193.43217285269924,421.8747695573119)"><circle class="outline" cx="0" cy="0" r="40" fill="#57C7E3" stroke="#23b3d7" stroke-width="2px"/><text text-anchor="middle" pointer-events="none" font-family="sans-serif" dy="2.5" font-size="40" fill="#FFFFFF"/><text text-anchor="middle" pointer-events="none" y="5" font-size="10px" fill="#FFFFFF" font-family="sans-serif"> Philosophie</text></g><g class="node" transform="translate(-68.43519990462272,428.4241358760802)"><circle class="outline" cx="0" cy="0" r="40" fill="#57C7E3" stroke="#23b3d7" stroke-width="2px"/><text text-anchor="middle" pointer-events="none" font-family="sans-serif" dy="2.5" font-size="40" fill="#FFFFFF"/><text text-anchor="middle" pointer-events="none" y="5" font-size="10px" fill="#FFFFFF" font-family="sans-serif"> Donatisten</text></g><g class="node" transform="translate(50.30927680321315,425.259705740967)"><circle class="outline" cx="0" cy="0" r="40" fill="#57C7E3" stroke="#23b3d7" stroke-width="2px"/><text text-anchor="middle" pointer-events="none" font-family="sans-serif" dy="2.5" font-size="40" fill="#FFFFFF"/><text text-anchor="middle" pointer-events="none" y="5" font-size="10px" fill="#FFFFFF" font-family="sans-serif"> Politik</text></g></g></svg>