<svg xmlns="http://www.w3.org/2000/svg" width="371.9747009277344" height="463.5212707519531" viewBox="-132.41966247558594 -113.21798706054688 371.9747009277344 463.5212707519531"><title>Neo4j Graph Visualization</title><desc>Created using Neo4j (http://www.neo4j.com/)</desc><g class="layer relationships"><g class="relationship" transform="translate(-33.528982018872895 249.8925643097445) rotate(308.9790807366463)"><path class="outline" fill="#68BDF6" stroke="none" d="M 23.759917089572927,7.919364866996621 L 24.536374224880486,5.021587388129416 A 181.0842030733434 181.0842030733434 0 0 0 31.8159108853094,6.811495969694988 L 31.16005294976992,9.738926646652175 A 184.0842030733434 184.0842030733434 0 0 1 23.759917089572927,7.919364866996621 Z M 106.23724593269182,10.866268447386886 L 105.6695791160339,7.920465605161098 A 181.0842030733434 181.0842030733434 0 0 0 112.9995754247386,6.349930398530615 L 112.31047344944784,3.430146422334709 L 122.10347834097169,5.742516460756301 L 114.3777793753201,12.189498350922428 L 113.68867740002935,9.269714374726522 A 184.0842030733434 184.0842030733434 0 0 1 106.23724593269182,10.866268447386886"/><text text-anchor="middle" pointer-events="none" font-size="8px" fill="#000000" x="68.66308152901159" y="15.67130152654559" font-family="sans-serif">REFERS_PERSON</text></g><g class="relationship" transform="translate(58.58400050151288 136.05754756552352) rotate(434.29499105498337)"><path class="outline" fill="#68BDF6" stroke="none" d="M 7.919364866996621 23.759917089572923 L 18.27212667109745 62.39695014113566 A 18.916697508022974 18.916697508022974 0 1 1 -18.27212667109745 62.39695014113566 L -10.248736272919308 32.45324952617454 L -4.453181315184898 34.006163796789664 L -6.4704761275630185 24.148145657226706 L -13.146513751786513 31.67679239086698 L -7.350958794052103 33.2297066614821 L -15.374349192230246 63.17340727644323 A 15.916697508022974 15.916697508022974 0 1 0 15.374349192230246 63.17340727644323 L 5.021587388129416 24.536374224880486 Z"/><text text-anchor="middle" pointer-events="none" font-size="8px" fill="#000000" x="0" y="95.20964923467838" font-family="sans-serif">REFERS_P…</text></g><g class="relationship" transform="translate(-33.528982018872895 249.8925643097445) rotate(338.9790807366463)"><path class="outline" fill="#68BDF6" stroke="none" d="M 7.919364866996621 23.759917089572923 L 18.27212667109745 62.39695014113566 A 18.916697508022974 18.916697508022974 0 1 1 -18.27212667109745 62.39695014113566 L -10.248736272919308 32.45324952617454 L -4.453181315184898 34.006163796789664 L -6.4704761275630185 24.148145657226706 L -13.146513751786513 31.67679239086698 L -7.350958794052103 33.2297066614821 L -15.374349192230246 63.17340727644323 A 15.916697508022974 15.916697508022974 0 1 0 15.374349192230246 63.17340727644323 L 5.021587388129416 24.536374224880486 Z"/><text text-anchor="middle" pointer-events="none" font-size="8px" fill="#000000" x="0" y="95.20964923467838" font-family="sans-serif">REFERS_P…</text></g><g class="relationship" transform="translate(58.58400050151288 136.05754756552352) rotate(488.9790807366463)"><path class="outline" fill="#68BDF6" stroke="none" d="M 23.759917089572927,7.919364866996621 L 24.536374224880486,5.021587388129416 A 181.0842030733434 181.0842030733434 0 0 0 31.8159108853094,6.811495969694988 L 31.16005294976992,9.738926646652175 A 184.0842030733434 184.0842030733434 0 0 1 23.759917089572927,7.919364866996621 Z M 106.23724593269182,10.866268447386886 L 105.6695791160339,7.920465605161098 A 181.0842030733434 181.0842030733434 0 0 0 112.9995754247386,6.349930398530615 L 112.31047344944784,3.430146422334709 L 122.10347834097169,5.742516460756301 L 114.3777793753201,12.189498350922428 L 113.68867740002935,9.269714374726522 A 184.0842030733434 184.0842030733434 0 0 1 106.23724593269182,10.866268447386886"/><text text-anchor="middle" pointer-events="none" font-size="8px" fill="#000000" x="68.66308152901159" y="15.67130152654559" transform="rotate(180 68.66308152901159 12.67130152654559)" font-family="sans-serif">REFERS_PERSON</text></g><g class="relationship" transform="translate(-33.528982018872895 249.8925643097445) rotate(458.9790807366463)"><path class="outline" fill="#68BDF6" stroke="none" d="M 7.919364866996621 23.759917089572923 L 18.27212667109745 62.39695014113566 A 18.916697508022974 18.916697508022974 0 1 1 -18.27212667109745 62.39695014113566 L -10.248736272919308 32.45324952617454 L -4.453181315184898 34.006163796789664 L -6.4704761275630185 24.148145657226706 L -13.146513751786513 31.67679239086698 L -7.350958794052103 33.2297066614821 L -15.374349192230246 63.17340727644323 A 15.916697508022974 15.916697508022974 0 1 0 15.374349192230246 63.17340727644323 L 5.021587388129416 24.536374224880486 Z"/><text text-anchor="middle" pointer-events="none" font-size="8px" fill="#000000" x="0" y="95.20964923467838" transform="rotate(180 0 92.20964923467838)" font-family="sans-serif">SAME_AS_…</text></g><g class="relationship" transform="translate(141.6708102655624 251.94717574118215) rotate(234.36145355975543)"><path class="outline" fill="#6DCE9E" stroke="none" d="M 23.759917089572927,-7.919364866996621 L 24.536374224880486,-5.021587388129416 A 173.4806276590454 173.4806276590454 0 0 1 37.698296705688534,-8.004849402533438 L 37.14944865835377,-10.95421642291879 A 176.4806276590454 176.4806276590454 0 0 0 23.759917089572927,-7.919364866996621 Z M 96.36671570309973,-11.865968441911662 L 95.90892747827971,-8.901102518937023 A 173.4806276590454 173.4806276590454 0 0 1 109.15645429115526,-6.324459551910069 L 108.46957662289181,-3.404151508425449 L 118.26081725574083,-5.723980568862041 L 110.53020962768214,-12.165075638879308 L 109.84333195941869,-9.24476759539469 A 176.4806276590454 176.4806276590454 0 0 0 96.36671570309973,-11.865968441911662"/><text text-anchor="middle" pointer-events="none" font-size="8px" fill="#000000" x="66.74265516495548" y="-9.412059736682835" transform="rotate(180 66.74265516495548 -12.412059736682835)" font-family="sans-serif">REFERS_ORT</text></g><g class="relationship" transform="translate(141.6708102655624 251.94717574118215) rotate(264.36145355975543)"><path class="outline" fill="#6DCE9E" stroke="none" d="M 7.919364866996621 23.759917089572923 L 18.27212667109745 62.39695014113566 A 18.916697508022974 18.916697508022974 0 1 1 -18.27212667109745 62.39695014113566 L -10.248736272919308 32.45324952617454 L -4.453181315184898 34.006163796789664 L -6.4704761275630185 24.148145657226706 L -13.146513751786513 31.67679239086698 L -7.350958794052103 33.2297066614821 L -15.374349192230246 63.17340727644323 A 15.916697508022974 15.916697508022974 0 1 0 15.374349192230246 63.17340727644323 L 5.021587388129416 24.536374224880486 Z"/><text text-anchor="middle" pointer-events="none" font-size="8px" fill="#000000" x="0" y="95.20964923467838" transform="rotate(180 0 92.20964923467838)" font-family="sans-serif">REFERS_…</text></g><g class="relationship" transform="translate(58.58400050151288 136.05754756552352) rotate(469.61090137332036)"><path class="outline" fill="#6DCE9E" stroke="none" d="M 7.919364866996621 23.759917089572923 L 18.27212667109745 62.39695014113566 A 18.916697508022974 18.916697508022974 0 1 1 -18.27212667109745 62.39695014113566 L -10.248736272919308 32.45324952617454 L -4.453181315184898 34.006163796789664 L -6.4704761275630185 24.148145657226706 L -13.146513751786513 31.67679239086698 L -7.350958794052103 33.2297066614821 L -15.374349192230246 63.17340727644323 A 15.916697508022974 15.916697508022974 0 1 0 15.374349192230246 63.17340727644323 L 5.021587388129416 24.536374224880486 Z"/><text text-anchor="middle" pointer-events="none" font-size="8px" fill="#000000" x="0" y="95.20964923467838" transform="rotate(180 0 92.20964923467838)" font-family="sans-serif">REFERS_…</text></g><g class="relationship" transform="translate(58.58400050151288 136.05754756552352) rotate(414.36145355975543)"><path class="outline" fill="#6DCE9E" stroke="none" d="M 23.759917089572927,-7.919364866996621 L 24.536374224880486,-5.021587388129416 A 173.4806276590454 173.4806276590454 0 0 1 37.698296705688534,-8.004849402533438 L 37.14944865835377,-10.95421642291879 A 176.4806276590454 176.4806276590454 0 0 0 23.759917089572927,-7.919364866996621 Z M 96.36671570309973,-11.865968441911662 L 95.90892747827971,-8.901102518937023 A 173.4806276590454 173.4806276590454 0 0 1 109.15645429115526,-6.324459551910069 L 108.46957662289181,-3.404151508425449 L 118.26081725574083,-5.723980568862041 L 110.53020962768214,-12.165075638879308 L 109.84333195941869,-9.24476759539469 A 176.4806276590454 176.4806276590454 0 0 0 96.36671570309973,-11.865968441911662"/><text text-anchor="middle" pointer-events="none" font-size="8px" fill="#000000" x="66.74265516495548" y="-9.412059736682835" font-family="sans-serif">REFERS_ORT</text></g><g class="relationship" transform="translate(59.2317768058209 -16.852467814836785) rotate(450.24272200999434)"><path class="outline" fill="#FF756E" stroke="none" d="M 23.759917089572927,7.919364866996621 L 24.536374224880486,5.021587388129416 A 193.892299405293 193.892299405293 0 0 0 34.99597536674381,7.515547814381989 L 34.38135448548984,10.451913113919261 A 196.892299405293 196.892299405293 0 0 1 23.759917089572927,7.919364866996621 Z M 109.48621304301614,11.534474997456527 L 108.95647949114533,8.581614966228784 A 193.892299405293 193.892299405293 0 0 0 119.4836162746285,6.390157506816485 L 118.79100152300238,3.471204816924118 L 128.58678172011867,5.771789596884313 L 120.86884577788074,12.22806288660122 L 120.17623102625461,9.309110196708854 A 196.892299405293 196.892299405293 0 0 1 109.48621304301614,11.534474997456527"/><text text-anchor="middle" pointer-events="none" font-size="8px" fill="#000000" x="71.90330075499051" y="16.108012740773034" transform="rotate(180 71.90330075499051 13.108012740773034)" font-family="sans-serif">SENTENCE_ENDS</text></g><g class="relationship" transform="translate(141.6708102655624 251.94717574118215) rotate(384.36145355975543)"><path class="outline" fill="#6DCE9E" stroke="none" d="M 7.919364866996621 23.759917089572923 L 18.27212667109745 62.39695014113566 A 18.916697508022974 18.916697508022974 0 1 1 -18.27212667109745 62.39695014113566 L -10.248736272919308 32.45324952617454 L -4.453181315184898 34.006163796789664 L -6.4704761275630185 24.148145657226706 L -13.146513751786513 31.67679239086698 L -7.350958794052103 33.2297066614821 L -15.374349192230246 63.17340727644323 A 15.916697508022974 15.916697508022974 0 1 0 15.374349192230246 63.17340727644323 L 5.021587388129416 24.536374224880486 Z"/><text text-anchor="middle" pointer-events="none" font-size="8px" fill="#000000" x="0" y="95.20964923467838" font-family="sans-serif">SAME_AS_…</text></g><g class="relationship" transform="translate(58.58400050151288 136.05754756552352) rotate(504.92681169165735)"><path class="outline" fill="#FFD86E" stroke="none" d="M 7.919364866996621 23.759917089572923 L 18.27212667109745 62.39695014113566 A 18.916697508022974 18.916697508022974 0 1 1 -18.27212667109745 62.39695014113566 L -10.248736272919308 32.45324952617454 L -4.453181315184898 34.006163796789664 L -6.4704761275630185 24.148145657226706 L -13.146513751786513 31.67679239086698 L -7.350958794052103 33.2297066614821 L -15.374349192230246 63.17340727644323 A 15.916697508022974 15.916697508022974 0 1 0 15.374349192230246 63.17340727644323 L 5.021587388129416 24.536374224880486 Z"/><text text-anchor="middle" pointer-events="none" font-size="8px" fill="#000000" x="0" y="95.20964923467838" transform="rotate(180 0 92.20964923467838)" font-family="sans-serif">NEXT_TOK…</text></g><g class="relationship" transform="translate(59.2317768058209 -16.852467814836785) rotate(180.2427220099944)"><path class="outline" fill="#FF756E" stroke="none" d="M 7.919364866996621 23.759917089572923 L 18.27212667109745 62.39695014113566 A 18.916697508022974 18.916697508022974 0 1 1 -18.27212667109745 62.39695014113566 L -10.248736272919308 32.45324952617454 L -4.453181315184898 34.006163796789664 L -6.4704761275630185 24.148145657226706 L -13.146513751786513 31.67679239086698 L -7.350958794052103 33.2297066614821 L -15.374349192230246 63.17340727644323 A 15.916697508022974 15.916697508022974 0 1 0 15.374349192230246 63.17340727644323 L 5.021587388129416 24.536374224880486 Z"/><text text-anchor="middle" pointer-events="none" font-size="8px" fill="#000000" x="0" y="95.20964923467838" transform="rotate(180 0 92.20964923467838)" font-family="sans-serif">NEXT_SEN…</text></g><g class="relationship" transform="translate(59.2317768058209 -16.852467814836785) rotate(450.24272200999434)"><path class="outline" fill="#FF756E" stroke="none" d="M 23.759917089572927,-7.919364866996621 L 24.536374224880486,-5.021587388129416 A 193.892299405293 193.892299405293 0 0 1 31.119472605955615,-6.6626354897334465 L 30.444872507796,-9.585804097180358 A 196.892299405293 196.892299405293 0 0 0 23.759917089572927,-7.919364866996621 Z M 113.44602266014755,-10.782183175317726 L 112.85595445381196,-7.840785631313878 A 193.892299405293 193.892299405293 0 0 1 119.4836162746285,-6.390157506816485 L 118.79100152300238,-3.471204816924118 L 128.58678172011867,-5.771789596884313 L 120.86884577788074,-12.22806288660122 L 120.17623102625461,-9.309110196708854 A 196.892299405293 196.892299405293 0 0 0 113.44602266014755,-10.782183175317726"/><text text-anchor="middle" pointer-events="none" font-size="8px" fill="#000000" x="71.90330075499043" y="-10.108012740773034" transform="rotate(180 71.90330075499043 -13.108012740773034)" font-family="sans-serif">SENTENCE_STARTS</text></g><g class="relationship" transform="translate(58.58400050151288 136.05754756552352) rotate(343.9175571320877)"><path class="outline" fill="#DE9BF9" stroke="none" d="M 25 1.5 L 26.557445402560063 1.5 L 26.557445402560063 -1.5 L 25 -1.5 Z M 89.55744540256006 1.5 L 91.11489080512013 1.5 L 91.11489080512013 4.5 L 100.11489080512013 0 L 91.11489080512013 -4.5 L 91.11489080512013 -1.5 L 89.55744540256006 -1.5 Z"/><text text-anchor="middle" pointer-events="none" font-size="8px" fill="#000000" x="58.05744540256006" y="3" font-family="sans-serif">LEMMATISIERT</text></g></g><g class="layer nodes"><g class="node" transform="translate(141.6708102655624,251.94717574118215)"><circle class="outline" cx="0" cy="0" r="25" fill="#6DCE9E" stroke="#60B58B" stroke-width="2px"/><text text-anchor="middle" pointer-events="none" font-family="sans-serif" dy="1.5625" font-size="25" fill="#FFFFFF"/><text text-anchor="middle" pointer-events="none" y="5" font-size="10px" fill="#FFFFFF" font-family="sans-serif"> Ort</text></g><g class="node" transform="translate(178.80240576393783,101.39819186844666)"><circle class="outline" cx="0" cy="0" r="25" fill="#DE9BF9" stroke="#BF85D6" stroke-width="2px"/><text text-anchor="middle" pointer-events="none" font-family="sans-serif" dy="1.5625" font-size="25" fill="#FFFFFF"/><text text-anchor="middle" pointer-events="none" y="5" font-size="10px" fill="#FFFFFF" font-family="sans-serif"> Lemma</text></g><g class="node" transform="translate(58.58400050151288,136.05754756552352)"><circle class="outline" cx="0" cy="0" r="25" fill="#FFD86E" stroke="#EDBA39" stroke-width="2px"/><text text-anchor="middle" pointer-events="none" font-family="sans-serif" dy="1.5625" font-size="25" fill="#604A0E"/><text text-anchor="middle" pointer-events="none" y="5" font-size="10px" fill="#604A0E" font-family="sans-serif"> Token</text></g><g class="node" transform="translate(59.2317768058209,-16.852467814836785)"><circle class="outline" cx="0" cy="0" r="25" fill="#FF756E" stroke="#E06760" stroke-width="2px"/><text text-anchor="middle" pointer-events="none" font-family="sans-serif" dy="1.5625" font-size="25" fill="#FFFFFF"/><text text-anchor="middle" pointer-events="none" y="5" font-size="10px" fill="#FFFFFF" font-family="sans-serif"> Sentence</text></g><g class="node selected" transform="translate(-33.528982018872895,249.8925643097445)"><circle class="outline" cx="0" cy="0" r="25" fill="#68BDF6" stroke="#5CA8DB" stroke-width="2px"/><text text-anchor="middle" pointer-events="none" font-family="sans-serif" dy="1.5625" font-size="25" fill="#FFFFFF"/><text text-anchor="middle" pointer-events="none" y="5" font-size="10px" fill="#FFFFFF" font-family="sans-serif"> Person</text></g></g></svg>