<svg xmlns="http://www.w3.org/2000/svg" width="385.6331787109375" height="285.5435791015625" viewBox="-164.5270538330078 -159.20358276367188 385.6331787109375 285.5435791015625"><title>Neo4j Graph Visualization</title><desc>Created using Neo4j (http://www.neo4j.com/)</desc><g class="layer relationships"><g class="relationship" transform="translate(25.049956614282507 26.161415145891766) rotate(539.9271636172326)"><path class="outline" fill="#A5ABB6" stroke="none" d="M 32.5 1.5 L 40.038569095745984 1.5 L 40.038569095745984 -1.5 L 32.5 -1.5 Z M 104.03856909574598 1.5 L 111.57713819149197 1.5 L 111.57713819149197 4.5 L 120.57713819149197 0 L 111.57713819149197 -4.5 L 111.57713819149197 -1.5 L 104.03856909574598 -1.5 Z"/><text text-anchor="middle" pointer-events="none" font-size="8px" fill="#000000" x="72.03856909574598" y="3" transform="rotate(180 72.03856909574598 0)" font-family="sans-serif">HAS_POSTURE</text></g><g class="relationship" transform="translate(25.049956614282507 26.161415145891766) rotate(330.96230299212925)"><path class="outline" fill="#A5ABB6" stroke="none" d="M 9.860507705265526 31.004360786740943 L 20.213269509366356 69.64139383830367 A 20.926316451256394 20.926316451256394 0 1 1 -20.213269509366356 69.64139383830367 L -12.189879111188215 39.697693223342554 L -6.3943241534538044 41.25060749395767 L -8.411618965831924 31.392589354394723 L -15.08765659005542 38.92123608803499 L -9.29210163232101 40.474150358650114 L -17.31549203049915 70.41785097361122 A 17.926316451256394 17.926316451256394 0 1 0 17.31549203049915 70.41785097361122 L 6.962730226398322 31.780817922048506 Z"/><text text-anchor="middle" pointer-events="none" font-size="8px" fill="#000000" x="0" y="104.98383953098741" font-family="sans-serif">RIGHT</text></g><g class="relationship" transform="translate(25.049956614282507 26.161415145891766) rotate(270.116353447939)"><path class="outline" fill="#A5ABB6" stroke="none" d="M 32.5 1.5 L 55.43265238053209 1.5 L 55.43265238053209 -1.5 L 32.5 -1.5 Z M 84.43265238053209 1.5 L 107.36530476106418 1.5 L 107.36530476106418 4.5 L 116.36530476106418 0 L 107.36530476106418 -4.5 L 107.36530476106418 -1.5 L 84.43265238053209 -1.5 Z"/><text text-anchor="middle" pointer-events="none" font-size="8px" fill="#000000" x="69.93265238053209" y="3" font-family="sans-serif">LEVEL</text></g><g class="relationship" transform="translate(25.049956614282507 26.161415145891766) rotate(361.4798726795776)"><path class="outline" fill="#A5ABB6" stroke="none" d="M 32.5 1.5 L 40.80469968311762 1.5 L 40.80469968311762 -1.5 L 32.5 -1.5 Z M 109.80469968311762 1.5 L 118.10939936623524 1.5 L 118.10939936623524 4.5 L 127.10939936623524 0 L 118.10939936623524 -4.5 L 118.10939936623524 -1.5 L 109.80469968311762 -1.5 Z"/><text text-anchor="middle" pointer-events="none" font-size="8px" fill="#000000" x="75.30469968311762" y="3" font-family="sans-serif">HAS_ATTRIBUTE</text></g><g class="relationship" transform="translate(25.049956614282507 26.161415145891766) rotate(390.44473330468094)"><path class="outline" fill="#A5ABB6" stroke="none" d="M 9.860507705265526 31.004360786740943 L 20.213269509366356 69.64139383830367 A 20.926316451256394 20.926316451256394 0 1 1 -20.213269509366356 69.64139383830367 L -12.189879111188215 39.697693223342554 L -6.3943241534538044 41.25060749395767 L -8.411618965831924 31.392589354394723 L -15.08765659005542 38.92123608803499 L -9.29210163232101 40.474150358650114 L -17.31549203049915 70.41785097361122 A 17.926316451256394 17.926316451256394 0 1 0 17.31549203049915 70.41785097361122 L 6.962730226398322 31.780817922048506 Z"/><text text-anchor="middle" pointer-events="none" font-size="8px" fill="#000000" x="0" y="104.98383953098741" font-family="sans-serif">ABOVE</text></g></g><g class="layer nodes"><g class="node" transform="translate(184.60611969274336,30.28345223087507)"><circle class="outline" cx="0" cy="0" r="32.5" fill="#6DCE9E" stroke="#60B58B" stroke-width="2px"/><text text-anchor="middle" pointer-events="none" font-family="sans-serif" dy="2.03125" font-size="32.5" fill="#FFFFFF"/><text text-anchor="middle" pointer-events="none" y="5" font-size="10px" fill="#FFFFFF" font-family="sans-serif"> Attribute</text></g><g class="node" transform="translate(25.352264737664257,-122.70358265884087)"><circle class="outline" cx="0" cy="0" r="32.5" fill="#FFD86E" stroke="#EDBA39" stroke-width="2px"/><text text-anchor="middle" pointer-events="none" font-family="sans-serif" dy="2.03125" font-size="32.5" fill="#604A0E"/><text text-anchor="middle" pointer-events="none" y="5" font-size="10px" fill="#604A0E" font-family="sans-serif"> Level</text></g><g class="node" transform="translate(25.049956614282507,26.161415145891766)"><circle class="outline" cx="0" cy="0" r="32.5" fill="#68BDF6" stroke="#5CA8DB" stroke-width="2px"/><text text-anchor="middle" pointer-events="none" font-family="sans-serif" dy="2.03125" font-size="32.5" fill="#FFFFFF"/><text text-anchor="middle" pointer-events="none" y="5" font-size="10px" fill="#FFFFFF" font-family="sans-serif"> Person</text></g><g class="node" transform="translate(-128.02705788801688,26.35601206248799)"><circle class="outline" cx="0" cy="0" r="32.5" fill="#FB95AF" stroke="#E0849B" stroke-width="2px"/><text text-anchor="middle" pointer-events="none" font-family="sans-serif" dy="2.03125" font-size="32.5" fill="#FFFFFF"/><text text-anchor="middle" pointer-events="none" y="5" font-size="10px" fill="#FFFFFF" font-family="sans-serif"> Posture</text></g></g></svg>