<svg xmlns="http://www.w3.org/2000/svg" width="506.9659729003906" height="371.055419921875" viewBox="-245.48641967773438 -123.43065643310547 506.9659729003906 371.055419921875"><title>Neo4j Graph Visualization</title><desc>Created using Neo4j (http://www.neo4j.com/)</desc><g class="layer relationships"><g class="relationship" transform="translate(139.541030911313 -94.43065325822582) rotate(473.32803472974206)"><path class="outline" fill="#DE9BF9" stroke="none" d="M 20.90063509461097,13.799038105676656 L 22.40063509461097,11.20096189432334 A 90.46680769425868 90.46680769425868 0 0 0 33.52487783251681,16.644672718894967 L 32.393772558265326,19.423269641545048 A 93.46680769425868 93.46680769425868 0 0 1 20.90063509461097,13.799038105676656 Z M 90.22060009287377,23.55110825955262 L 89.49564023680325,20.64002028302457 A 90.46680769425868 90.46680769425868 0 0 0 101.28032478715289,16.831611943289985 L 100.16456907399265,14.04681586663549 L 110.1925908736965,14.876742842136519 L 103.51183621347337,22.40120409659898 L 102.39608050031313,19.616408019944487 A 93.46680769425868 93.46680769425868 0 0 1 90.22060009287377,23.55110825955262"/><text text-anchor="middle" pointer-events="none" font-size="8px" fill="#000000" x="61.08585620401733" y="27.587799209724025" transform="rotate(180 61.08585620401733 24.587799209724025)" font-family="sans-serif">RECEIVER_IN</text></g><g class="relationship" transform="translate(95.53474588006222 211.12476460195444) rotate(265.1884680376711)"><path class="outline" fill="#DE9BF9" stroke="none" d="M 27.39582562299426,17.549038105676654 L 28.89582562299426,14.950961894323338 A 105.2163387653186 105.2163387653186 0 0 0 48.77888020232195,23.82866362590228 L 47.84579941313985,26.67986692290853 A 108.2163387653186 108.2163387653186 0 0 1 27.39582562299426,17.549038105676654 Z M 105.88224728174397,29.26564355527826 L 105.20642736709252,26.34275672151948 A 105.2163387653186 105.2163387653186 0 0 0 125.80021233578579,19.268474559870267 L 124.53720838079359,16.54729448319874 L 134.59525454329648,16.840052733229417 L 128.3262202457702,24.710834713213316 L 127.06321629077799,21.98965463654179 A 108.2163387653186 108.2163387653186 0 0 1 105.88224728174397,29.26564355527826"/><text text-anchor="middle" pointer-events="none" font-size="8px" fill="#000000" x="76.7540293420184" y="33.441515023564946" transform="rotate(180 76.7540293420184 30.441515023564946)" font-family="sans-serif">RECEIVER_IN</text></g><g class="relationship" transform="translate(-2.8258154513530656 -81.18590084568973) rotate(415.4505527797533)"><path class="outline" fill="#DE9BF9" stroke="none" d="M 20.90063509461097,13.799038105676656 L 22.40063509461097,11.20096189432334 A 91.3784026012086 91.3784026012086 0 0 0 33.92910911799593,16.81786226392181 L 32.80759485516833,19.600344206050863 A 94.3784026012086 94.3784026012086 0 0 1 20.90063509461097,13.799038105676656 Z M 90.6456168163842,23.708381440802157 L 89.92863772584553,20.795317592595197 A 91.3784026012086 91.3784026012086 0 0 0 102.1352719601356,16.86424092835729 L 101.0175427835762,14.080236350798575 L 111.04615028109143,14.903055687458487 L 104.37073031325437,22.432250083474717 L 103.25300113669498,19.648245505916 A 94.3784026012086 94.3784026012086 0 0 1 90.6456168163842,23.708381440802157"/><text text-anchor="middle" pointer-events="none" font-size="8px" fill="#000000" x="61.50957763997503" y="27.70995381193306" font-family="sans-serif">RECEIVER_IN</text></g><g class="relationship" transform="translate(224.97956551143233 4.859009913660088) rotate(525.9465683256442)"><path class="outline" fill="#DE9BF9" stroke="none" d="M 27.39582562299426,17.549038105676654 L 28.89582562299426,14.950961894323338 A 81.34916043350906 81.34916043350906 0 0 0 37.83473606285564,19.404014737857494 L 36.664385824164526,22.166310941886962 A 84.34916043350906 84.34916043350906 0 0 1 27.39582562299426,17.549038105676654 Z M 94.44160419463451,25.099556856919065 L 93.55702402002241,22.232935515569068 A 81.34916043350906 81.34916043350906 0 0 0 102.90095908894968,18.708069999433647 L 101.67179262657012,15.97143889390237 L 111.72543563673328,16.38888616506064 L 105.35929201370877,24.181332210496205 L 104.13012555132921,21.444701104964928 A 84.34916043350906 84.34916043350906 0 0 1 94.44160419463451,25.099556856919065"/><text text-anchor="middle" pointer-events="none" font-size="8px" fill="#000000" x="65.36971229583514" y="30.243120590833385" transform="rotate(180 65.36971229583514 27.243120590833385)" font-family="sans-serif">RECEIVER_IN</text></g><g class="relationship" transform="translate(-21.672542224932158 139.50570486084428) rotate(316.19899185850704)"><path class="outline" fill="#DE9BF9" stroke="none" d="M 20.90063509461097,13.799038105676656 L 22.40063509461097,11.20096189432334 A 85.2736088269766 85.2736088269766 0 0 0 31.238543492204954,15.641204638009498 L 30.049468824878268,18.395492465292975 A 88.2736088269766 88.2736088269766 0 0 1 20.90063509461097,13.799038105676656 Z M 87.80415653106779,22.63905112522481 L 87.03042413271554,19.740544927932817 A 85.2736088269766 85.2736088269766 0 0 0 96.42241425709584,16.63975438830232 L 95.31826344722413,13.850336709097634 L 105.34274269964575,14.72201079828952 L 98.63071587683928,22.218589746711686 L 97.52656506696756,19.429172067507 A 88.2736088269766 88.2736088269766 0 0 1 87.80415653106779,22.63905112522481"/><text text-anchor="middle" pointer-events="none" font-size="8px" fill="#000000" x="58.67883990155763" y="26.892172770879768" font-family="sans-serif">RECEIVER_IN</text></g><g class="relationship" transform="translate(189.64392624025652 124.80183168056101) rotate(217.74593164351018)"><path class="outline" fill="#DE9BF9" stroke="none" d="M 20.90063509461097,13.799038105676656 L 22.40063509461097,11.20096189432334 A 79.38983895520089 79.38983895520089 0 0 0 28.68654324545316,14.465290177985821 L 27.424076470116425,17.186719515883624 A 82.38983895520089 82.38983895520089 0 0 1 20.90063509461097,13.799038105676656 Z M 85.0760208645091,21.56740353078459 L 84.23925021716775,18.6864636001807 A 79.38983895520089 79.38983895520089 0 0 0 90.94622116900271,16.40939946503105 L 89.85600608695405,13.614505714837023 L 99.87600996060912,14.536201093982093 L 93.12665133310001,21.999186965419106 L 92.03643625105136,19.20429321522508 A 82.38983895520089 82.38983895520089 0 0 1 85.0760208645091,21.56740353078459"/><text text-anchor="middle" pointer-events="none" font-size="8px" fill="#000000" x="55.966806110710095" y="26.10467211287616" transform="rotate(180 55.966806110710095 23.10467211287616)" font-family="sans-serif">RECEIVER_IN</text></g><g class="relationship" transform="translate(-2.8258154513530656 -81.18590084568973) rotate(415.4505527797533)"><path class="outline" fill="#FFD86E" stroke="none" d="M 25 1.5 L 29.08310565760381 1.5 L 29.08310565760381 -1.5 L 25 -1.5 Z M 95.08310565760381 1.5 L 99.16621131520762 1.5 L 99.16621131520762 4.5 L 108.16621131520762 0 L 99.16621131520762 -4.5 L 99.16621131520762 -1.5 L 95.08310565760381 -1.5 Z"/><text text-anchor="middle" pointer-events="none" font-size="8px" fill="#000000" x="62.08310565760381" y="3" font-family="sans-serif">MENTIONED_IN</text></g><g class="relationship" transform="translate(95.53474588006222 211.12476460195444) rotate(265.1884680376711)"><path class="outline" fill="#FFD86E" stroke="none" d="M 32.5 1.5 L 44.188827782791776 1.5 L 44.188827782791776 -1.5 L 32.5 -1.5 Z M 110.18882778279178 1.5 L 121.87765556558355 1.5 L 121.87765556558355 4.5 L 130.87765556558355 0 L 121.87765556558355 -4.5 L 121.87765556558355 -1.5 L 110.18882778279178 -1.5 Z"/><text text-anchor="middle" pointer-events="none" font-size="8px" fill="#000000" x="77.18882778279178" y="3" transform="rotate(180 77.18882778279178 0)" font-family="sans-serif">MENTIONED_IN</text></g><g class="relationship" transform="translate(-179.15259212723151 -38.69169498101779) rotate(376.98845751967565)"><path class="outline" fill="#FFD86E" stroke="none" d="M 25 1.5 L 91.11684025474145 1.5 L 91.11684025474145 -1.5 L 25 -1.5 Z M 157.11684025474145 1.5 L 223.2336805094829 1.5 L 223.2336805094829 4.5 L 232.2336805094829 0 L 223.2336805094829 -4.5 L 223.2336805094829 -1.5 L 157.11684025474145 -1.5 Z"/><text text-anchor="middle" pointer-events="none" font-size="8px" fill="#000000" x="124.11684025474145" y="3" font-family="sans-serif">MENTIONED_IN</text></g><g class="relationship" transform="translate(-145.24692767763509 13.976865457925761) rotate(366.7675767139758)"><path class="outline" fill="#FFD86E" stroke="none" d="M 25 1.5 L 69.01880684037216 1.5 L 69.01880684037216 -1.5 L 25 -1.5 Z M 135.01880684037218 1.5 L 179.03761368074433 1.5 L 179.03761368074433 4.5 L 188.03761368074433 0 L 179.03761368074433 -4.5 L 179.03761368074433 -1.5 L 135.01880684037218 -1.5 Z"/><text text-anchor="middle" pointer-events="none" font-size="8px" fill="#000000" x="102.01880684037216" y="3" font-family="sans-serif">MENTIONED_IN</text></g><g class="relationship" transform="translate(-148.40480824358377 92.57100331767154) rotate(347.3053108540166)"><path class="outline" fill="#FFD86E" stroke="none" d="M 25 1.5 L 72.68000166123299 1.5 L 72.68000166123299 -1.5 L 25 -1.5 Z M 138.680001661233 1.5 L 186.36000332246599 1.5 L 186.36000332246599 4.5 L 195.36000332246599 0 L 186.36000332246599 -4.5 L 186.36000332246599 -1.5 L 138.680001661233 -1.5 Z"/><text text-anchor="middle" pointer-events="none" font-size="8px" fill="#000000" x="105.68000166123299" y="3" font-family="sans-serif">MENTIONED_IN</text></g><g class="relationship" transform="translate(189.64392624025652 124.80183168056101) rotate(217.74593164351018)"><path class="outline" fill="#FFD86E" stroke="none" d="M 25 1.5 L 25.57062998159809 1.5 L 25.57062998159809 -1.5 L 25 -1.5 Z M 87.57062998159809 1.5 L 88.14125996319618 1.5 L 88.14125996319618 4.5 L 97.14125996319618 0 L 88.14125996319618 -4.5 L 88.14125996319618 -1.5 L 87.57062998159809 -1.5 Z"/><text text-anchor="middle" pointer-events="none" font-size="8px" fill="#000000" x="56.57062998159809" y="3" transform="rotate(180 56.57062998159809 0)" font-family="sans-serif">MENTIONED…</text></g><g class="relationship" transform="translate(-21.672542224932158 139.50570486084428) rotate(316.19899185850704)"><path class="outline" fill="#FFD86E" stroke="none" d="M 25 1.5 L 26.267489211187453 1.5 L 26.267489211187453 -1.5 L 25 -1.5 Z M 92.26748921118745 1.5 L 93.5349784223749 1.5 L 93.5349784223749 4.5 L 102.5349784223749 0 L 93.5349784223749 -4.5 L 93.5349784223749 -1.5 L 92.26748921118745 -1.5 Z"/><text text-anchor="middle" pointer-events="none" font-size="8px" fill="#000000" x="59.26748921118745" y="3" font-family="sans-serif">MENTIONED_IN</text></g><g class="relationship" transform="translate(-216.48641205635164 66.27071077030794) rotate(355.11900270839556)"><path class="outline" fill="#FFD86E" stroke="none" d="M 25 1.5 L 104.3858434352237 1.5 L 104.3858434352237 -1.5 L 25 -1.5 Z M 170.3858434352237 1.5 L 249.7716868704474 1.5 L 249.7716868704474 4.5 L 258.7716868704474 0 L 249.7716868704474 -4.5 L 249.7716868704474 -1.5 L 170.3858434352237 -1.5 Z"/><text text-anchor="middle" pointer-events="none" font-size="8px" fill="#000000" x="137.3858434352237" y="3" font-family="sans-serif">MENTIONED_IN</text></g><g class="relationship" transform="translate(-178.10143839773133 143.60557185172252) rotate(338.3826435263669)"><path class="outline" fill="#FFD86E" stroke="none" d="M 25 1.5 L 94.46059003653224 1.5 L 94.46059003653224 -1.5 L 25 -1.5 Z M 160.46059003653224 1.5 L 229.92118007306448 1.5 L 229.92118007306448 4.5 L 238.92118007306448 0 L 229.92118007306448 -4.5 L 229.92118007306448 -1.5 L 160.46059003653224 -1.5 Z"/><text text-anchor="middle" pointer-events="none" font-size="8px" fill="#000000" x="127.46059003653224" y="3" font-family="sans-serif">MENTIONED_IN</text></g><g class="relationship" transform="translate(224.97956551143233 4.859009913660088) rotate(525.9465683256442)"><path class="outline" fill="#FFD86E" stroke="none" d="M 32.5 1.5 L 32.85692518857515 1.5 L 32.85692518857515 -1.5 L 32.5 -1.5 Z M 98.85692518857515 1.5 L 99.2138503771503 1.5 L 99.2138503771503 4.5 L 108.2138503771503 0 L 99.2138503771503 -4.5 L 99.2138503771503 -1.5 L 98.85692518857515 -1.5 Z"/><text text-anchor="middle" pointer-events="none" font-size="8px" fill="#000000" x="65.85692518857515" y="3" transform="rotate(180 65.85692518857515 0)" font-family="sans-serif">MENTIONED_IN</text></g><g class="relationship" transform="translate(139.541030911313 -94.43065325822582) rotate(473.32803472974206)"><path class="outline" fill="#FFD86E" stroke="none" d="M 25 1.5 L 28.661602614544904 1.5 L 28.661602614544904 -1.5 L 25 -1.5 Z M 94.6616026145449 1.5 L 98.32320522908981 1.5 L 98.32320522908981 4.5 L 107.32320522908981 0 L 98.32320522908981 -4.5 L 98.32320522908981 -1.5 L 94.6616026145449 -1.5 Z"/><text text-anchor="middle" pointer-events="none" font-size="8px" fill="#000000" x="61.661602614544904" y="3" transform="rotate(180 61.661602614544904 0)" font-family="sans-serif">MENTIONED_IN</text></g><g class="relationship" transform="translate(-21.672542224932158 139.50570486084428) rotate(316.19899185850704)"><path class="outline" fill="#68BDF6" stroke="none" d="M 20.90063509461097,-13.799038105676656 L 22.40063509461097,-11.20096189432334 A 85.2736088269766 85.2736088269766 0 0 1 34.42296621976962,-16.94043239590063 L 33.345922323910315,-19.74042818989608 A 88.2736088269766 88.2736088269766 0 0 0 20.90063509461097,-13.799038105676656 Z M 84.34652619041964,-23.48772668279892 L 83.6903021975782,-20.560378040901412 A 85.2736088269766 85.2736088269766 0 0 1 96.42241425709584,-16.63975438830232 L 95.31826344722413,-13.850336709097634 L 105.34274269964575,-14.72201079828952 L 98.63071587683928,-22.218589746711686 L 97.52656506696756,-19.429172067507 A 88.2736088269766 88.2736088269766 0 0 0 84.34652619041964,-23.48772668279892"/><text text-anchor="middle" pointer-events="none" font-size="8px" fill="#000000" x="58.678839901557616" y="-20.892172770879768" font-family="sans-serif">SENDER_IN</text></g><g class="relationship" transform="translate(139.541030911313 -94.43065325822582) rotate(473.32803472974206)"><path class="outline" fill="#68BDF6" stroke="none" d="M 20.90063509461097,-13.799038105676656 L 22.40063509461097,-11.20096189432334 A 90.46680769425868 90.46680769425868 0 0 1 36.737629760393844,-17.88178731695784 L 35.713063624963354,-20.701408609636886 A 93.46680769425868 93.46680769425868 0 0 0 20.90063509461097,-13.799038105676656 Z M 86.75341532685556,-24.344809844222453 L 86.13974154714361,-21.408246462973196 A 90.46680769425868 90.46680769425868 0 0 1 101.28032478715289,-16.831611943289985 L 100.16456907399265,-14.04681586663549 L 110.1925908736965,-14.876742842136519 L 103.51183621347337,-22.40120409659898 L 102.39608050031313,-19.616408019944487 A 93.46680769425868 93.46680769425868 0 0 0 86.75341532685556,-24.344809844222453"/><text text-anchor="middle" pointer-events="none" font-size="8px" fill="#000000" x="61.08585620401734" y="-21.587799209724025" transform="rotate(180 61.08585620401734 -24.587799209724025)" font-family="sans-serif">SENDER_IN</text></g><g class="relationship" transform="translate(224.97956551143233 4.859009913660088) rotate(525.9465683256442)"><path class="outline" fill="#68BDF6" stroke="none" d="M 27.39582562299426,-17.549038105676654 L 28.89582562299426,-14.950961894323338 A 81.34916043350906 81.34916043350906 0 0 1 41.026441374762335,-20.677474250098143 L 39.97379506669194,-23.48673318264703 A 84.34916043350906 84.34916043350906 0 0 0 27.39582562299426,-17.549038105676654 Z M 91.01548423430648,-26.07802834135903 L 90.25275897595152,-23.17660624516769 A 81.34916043350906 81.34916043350906 0 0 1 102.90095908894968,-18.708069999433647 L 101.67179262657012,-15.97143889390237 L 111.72543563673328,-16.38888616506064 L 105.35929201370877,-24.181332210496205 L 104.13012555132921,-21.444701104964928 A 84.34916043350906 84.34916043350906 0 0 0 91.01548423430648,-26.07802834135903"/><text text-anchor="middle" pointer-events="none" font-size="8px" fill="#000000" x="65.36971229583511" y="-24.243120590833385" transform="rotate(180 65.36971229583511 -27.243120590833385)" font-family="sans-serif">SENDER_IN</text></g><g class="relationship" transform="translate(189.64392624025652 124.80183168056101) rotate(217.74593164351018)"><path class="outline" fill="#68BDF6" stroke="none" d="M 20.90063509461097,-13.799038105676656 L 22.40063509461097,-11.20096189432334 A 79.38983895520089 79.38983895520089 0 0 1 31.832964521441134,-15.84299955589691 L 30.689395377743267,-18.616490066712146 A 82.38983895520089 82.38983895520089 0 0 0 20.90063509461097,-13.799038105676656 Z M 81.63215664005973,-22.487376682610076 L 80.92078486234071,-19.572938453059677 A 79.38983895520089 79.38983895520089 0 0 1 90.94622116900271,-16.40939946503105 L 89.85600608695405,-13.614505714837023 L 99.87600996060912,-14.536201093982093 L 93.12665133310001,-21.999186965419106 L 92.03643625105136,-19.20429321522508 A 82.38983895520089 82.38983895520089 0 0 0 81.63215664005973,-22.487376682610076"/><text text-anchor="middle" pointer-events="none" font-size="8px" fill="#000000" x="55.96680611071009" y="-20.10467211287616" transform="rotate(180 55.96680611071009 -23.10467211287616)" font-family="sans-serif">SENDER_IN</text></g><g class="relationship" transform="translate(95.53474588006222 211.12476460195444) rotate(265.1884680376711)"><path class="outline" fill="#68BDF6" stroke="none" d="M 27.39582562299426,-17.549038105676654 L 28.89582562299426,-14.950961894323338 A 105.2163387653186 105.2163387653186 0 0 1 52.07553927595841,-24.847987382436372 L 51.236455078341514,-27.72825433348615 A 108.2163387653186 108.2163387653186 0 0 0 27.39582562299426,-17.549038105676654 Z M 102.4117910917529,-30.008338537067004 L 101.83218001847197,-27.06486253007627 A 105.2163387653186 105.2163387653186 0 0 1 125.80021233578579,-19.268474559870267 L 124.53720838079359,-16.54729448319874 L 134.59525454329648,-16.840052733229417 L 128.3262202457702,-24.710834713213316 L 127.06321629077799,-21.98965463654179 A 108.2163387653186 108.2163387653186 0 0 0 102.4117910917529,-30.008338537067004"/><text text-anchor="middle" pointer-events="none" font-size="8px" fill="#000000" x="76.75402934201841" y="-27.441515023564946" transform="rotate(180 76.75402934201841 -30.441515023564946)" font-family="sans-serif">SENDER_IN</text></g><g class="relationship" transform="translate(-2.8258154513530656 -81.18590084568973) rotate(415.4505527797533)"><path class="outline" fill="#68BDF6" stroke="none" d="M 20.90063509461097,-13.799038105676656 L 22.40063509461097,-11.20096189432334 A 91.3784026012086 91.3784026012086 0 0 1 37.14640739290261,-18.04468954309199 L 36.13051868874058,-20.86744885638032 A 94.3784026012086 94.3784026012086 0 0 0 20.90063509461097,-13.799038105676656 Z M 87.17695875692814,-24.493103216452184 L 86.57023766919059,-21.555095469407505 A 91.3784026012086 91.3784026012086 0 0 1 102.1352719601356,-16.86424092835729 L 101.0175427835762,-14.080236350798575 L 111.04615028109143,-14.903055687458487 L 104.37073031325437,-22.432250083474717 L 103.25300113669498,-19.648245505916 A 94.3784026012086 94.3784026012086 0 0 0 87.17695875692814,-24.493103216452184"/><text text-anchor="middle" pointer-events="none" font-size="8px" fill="#000000" x="61.50957763997504" y="-21.70995381193306" font-family="sans-serif">SENDER_IN</text></g><g class="relationship" transform="translate(81.2018004310517 40.84928237874682) rotate(209.4772162957767)"><path class="outline" fill="#FF756E" stroke="none" d="M 40 1.5 L 101.40637469031968 1.5 L 101.40637469031968 -1.5 L 40 -1.5 Z M 127.40637469031968 1.5 L 188.81274938063936 1.5 L 188.81274938063936 4.5 L 197.81274938063936 0 L 188.81274938063936 -4.5 L 188.81274938063936 -1.5 L 127.40637469031968 -1.5 Z"/><text text-anchor="middle" pointer-events="none" font-size="8px" fill="#000000" x="114.40637469031968" y="3" transform="rotate(180 114.40637469031968 0)" font-family="sans-serif">TYPE</text></g></g><g class="layer nodes"><g class="node" transform="translate(139.541030911313,-94.43065325822582)"><circle class="outline" cx="0" cy="0" r="25" fill="#FFD86E" stroke="#EDBA39" stroke-width="2px"/><text text-anchor="middle" pointer-events="none" font-family="sans-serif" dy="1.5625" font-size="25" fill="#604A0E"/><text text-anchor="middle" pointer-events="none" y="5" font-size="10px" fill="#604A0E" font-family="sans-serif"> Entity</text></g><g class="node" transform="translate(95.53474588006222,211.12476460195444)"><circle class="outline" cx="0" cy="0" r="32.5" fill="#68BDF6" stroke="#5CA8DB" stroke-width="2px"/><text text-anchor="middle" pointer-events="none" font-family="sans-serif" dy="2.03125" font-size="32.5" fill="#FFFFFF"/><text text-anchor="middle" pointer-events="none" y="5" font-size="10px" fill="#FFFFFF" font-family="sans-serif"> Personengr…</text></g><g class="node" transform="translate(224.97956551143233,4.859009913660088)"><circle class="outline" cx="0" cy="0" r="32.5" fill="#DE9BF9" stroke="#BF85D6" stroke-width="2px"/><text text-anchor="middle" pointer-events="none" font-family="sans-serif" dy="2.03125" font-size="32.5" fill="#FFFFFF"/><text text-anchor="middle" pointer-events="none" y="5" font-size="10px" fill="#FFFFFF" font-family="sans-serif"> Institution</text></g><g class="node" transform="translate(-178.10143839773133,143.60557185172252)"><circle class="outline" cx="0" cy="0" r="25" fill="#FB95AF" stroke="#E0849B" stroke-width="2px"/><text text-anchor="middle" pointer-events="none" font-family="sans-serif" dy="1.5625" font-size="25" fill="#FFFFFF"/><text text-anchor="middle" pointer-events="none" y="5" font-size="10px" fill="#FFFFFF" font-family="sans-serif"> Ereignis</text></g><g class="node" transform="translate(-179.15259212723151,-38.69169498101779)"><circle class="outline" cx="0" cy="0" r="25" fill="#A5ABB6" stroke="#9AA1AC" stroke-width="2px"/><text text-anchor="middle" pointer-events="none" font-family="sans-serif" dy="1.5625" font-size="25" fill="#FFFFFF"/><text text-anchor="middle" pointer-events="none" y="5" font-size="10px" fill="#FFFFFF" font-family="sans-serif"> Sache</text></g><g class="node" transform="translate(81.2018004310517,40.84928237874682)"><circle class="outline" cx="0" cy="0" r="40" fill="#FF756E" stroke="#E06760" stroke-width="2px"/><text text-anchor="middle" pointer-events="none" font-family="sans-serif" dy="2.5" font-size="40" fill="#FFFFFF"/><text text-anchor="middle" pointer-events="none" y="5" font-size="10px" fill="#FFFFFF" font-family="sans-serif"> Letter</text></g><g class="node" transform="translate(-2.8258154513530656,-81.18590084568973)"><circle class="outline" cx="0" cy="0" r="25" fill="#6DCE9E" stroke="#60B58B" stroke-width="2px"/><text text-anchor="middle" pointer-events="none" font-family="sans-serif" dy="1.5625" font-size="25" fill="#FFFFFF"/><text text-anchor="middle" pointer-events="none" y="5" font-size="10px" fill="#FFFFFF" font-family="sans-serif"> Ort</text></g><g class="node" transform="translate(-216.48641205635164,66.27071077030794)"><circle class="outline" cx="0" cy="0" r="25" fill="#6DCE9E" stroke="#60B58B" stroke-width="2px"/><text text-anchor="middle" pointer-events="none" font-family="sans-serif" dy="1.5625" font-size="25" fill="#FFFFFF"/><text text-anchor="middle" pointer-events="none" y="5" font-size="10px" fill="#FFFFFF" font-family="sans-serif"> Fluß</text></g><g class="node" transform="translate(-112.76815931970842,-68.79184129685274)"><circle class="outline" cx="0" cy="0" r="25" fill="#FF756E" stroke="#E06760" stroke-width="2px"/><text text-anchor="middle" pointer-events="none" font-family="sans-serif" dy="1.5625" font-size="25" fill="#FFFFFF"/><text text-anchor="middle" pointer-events="none" y="5" font-size="10px" fill="#FFFFFF" font-family="sans-serif"> Type</text></g><g class="node" transform="translate(-145.24692767763509,13.976865457925761)"><circle class="outline" cx="0" cy="0" r="25" fill="#6DCE9E" stroke="#60B58B" stroke-width="2px"/><text text-anchor="middle" pointer-events="none" font-family="sans-serif" dy="1.5625" font-size="25" fill="#FFFFFF"/><text text-anchor="middle" pointer-events="none" font-family="sans-serif" dy="1.5625" font-size="25" fill="#FFFFFF"/><text text-anchor="middle" pointer-events="none" y="0" font-size="25" fill="#FFFFFF" dy="1.5625" font-family="sans-serif"/><text text-anchor="middle" pointer-events="none" y="-5" font-size="10px" fill="#FFFFFF" font-family="sans-serif"> Stadt</text><text text-anchor="middle" pointer-events="none" y="5" font-size="10px" fill="#FFFFFF" font-family="sans-serif"> und</text><text text-anchor="middle" pointer-events="none" y="15" font-size="10px" fill="#FFFFFF" font-family="sans-serif"> Schloß</text></g><g class="node" transform="translate(-21.672542224932158,139.50570486084428)"><circle class="outline" cx="0" cy="0" r="25" fill="#6DCE9E" stroke="#60B58B" stroke-width="2px"/><text text-anchor="middle" pointer-events="none" font-family="sans-serif" dy="1.5625" font-size="25" fill="#FFFFFF"/><text text-anchor="middle" pointer-events="none" y="5" font-size="10px" fill="#FFFFFF" font-family="sans-serif"> Stadt</text></g><g class="node" transform="translate(-148.40480824358377,92.57100331767154)"><circle class="outline" cx="0" cy="0" r="25" fill="#6DCE9E" stroke="#60B58B" stroke-width="2px"/><text text-anchor="middle" pointer-events="none" font-family="sans-serif" dy="1.5625" font-size="25" fill="#FFFFFF"/><text text-anchor="middle" pointer-events="none" y="5" font-size="10px" fill="#FFFFFF" font-family="sans-serif"> Region</text></g><g class="node" transform="translate(189.64392624025652,124.80183168056101)"><circle class="outline" cx="0" cy="0" r="25" fill="#68BDF6" stroke="#5CA8DB" stroke-width="2px"/><text text-anchor="middle" pointer-events="none" font-family="sans-serif" dy="1.5625" font-size="25" fill="#FFFFFF"/><text text-anchor="middle" pointer-events="none" y="5" font-size="10px" fill="#FFFFFF" font-family="sans-serif"> Person</text></g></g></svg>