<svg xmlns="http://www.w3.org/2000/svg" width="556.9290161132812" height="399.2756042480469" viewBox="-187.69740295410156 -103.32357788085938 556.9290161132812 399.2756042480469"><title>Neo4j Graph Visualization</title><desc>Created using Neo4j (http://www.neo4j.com/)</desc><g class="layer relationships"><g class="relationship" transform="translate(274.1805813249491 102.63170145541818) rotate(491.2630717388404)"><path class="outline" fill="#A5ABB6" stroke="none" d="M 40 1.5 L 69.82314540025187 1.5 L 69.82314540025187 -1.5 L 40 -1.5 Z M 119.82314540025187 1.5 L 149.64629080050375 1.5 L 149.64629080050375 4.5 L 158.64629080050375 0 L 149.64629080050375 -4.5 L 149.64629080050375 -1.5 L 119.82314540025187 -1.5 Z"/><text text-anchor="middle" pointer-events="none" font-size="8px" fill="#000000" x="94.82314540025187" y="3" transform="rotate(180 94.82314540025187 0)" font-family="sans-serif">IDENTIFIED</text></g><g class="relationship" transform="translate(30.12102075048641 99.65577285935092) rotate(413.413647385392)"><path class="outline" fill="#A5ABB6" stroke="none" d="M 40 1.5 L 65.33432110416798 1.5 L 65.33432110416798 -1.5 L 40 -1.5 Z M 115.33432110416798 1.5 L 140.66864220833597 1.5 L 140.66864220833597 4.5 L 149.66864220833597 0 L 140.66864220833597 -4.5 L 140.66864220833597 -1.5 L 115.33432110416798 -1.5 Z"/><text text-anchor="middle" pointer-events="none" font-size="8px" fill="#000000" x="90.33432110416798" y="3" font-family="sans-serif">IDENTIFIED</text></g><g class="relationship" transform="translate(274.1805813249491 102.63170145541818) rotate(232.57242821289924)"><path class="outline" fill="#A5ABB6" stroke="none" d="M 40 1.5 L 72.47125031687165 1.5 L 72.47125031687165 -1.5 L 40 -1.5 Z M 122.47125031687165 1.5 L 154.9425006337433 1.5 L 154.9425006337433 4.5 L 163.9425006337433 0 L 154.9425006337433 -4.5 L 154.9425006337433 -1.5 L 122.47125031687165 -1.5 Z"/><text text-anchor="middle" pointer-events="none" font-size="8px" fill="#000000" x="97.47125031687165" y="3" transform="rotate(180 97.47125031687165 0)" font-family="sans-serif">IDENTIFIED</text></g><g class="relationship" transform="translate(30.12102075048641 99.65577285935092) rotate(307.07172720519645)"><path class="outline" fill="#A5ABB6" stroke="none" d="M 40 1.5 L 70.1259163398608 1.5 L 70.1259163398608 -1.5 L 40 -1.5 Z M 120.1259163398608 1.5 L 150.2518326797216 1.5 L 150.2518326797216 4.5 L 159.2518326797216 0 L 150.2518326797216 -4.5 L 150.2518326797216 -1.5 L 120.1259163398608 -1.5 Z"/><text text-anchor="middle" pointer-events="none" font-size="8px" fill="#000000" x="95.1259163398608" y="3" font-family="sans-serif">IDENTIFIED</text></g><g class="relationship" transform="translate(274.1805813249491 102.63170145541818) rotate(228.8026427215463)"><path class="outline" fill="#A5ABB6" stroke="none" d="M 11.801650543534434 38.24880448390895 L 22.154412347635265 76.88583753547168 A 22.935935394489817 22.935935394489817 0 1 1 -22.154412347635265 76.88583753547168 L -14.13102194945712 46.94213692051056 L -8.33546699172271 48.49505119112569 L -10.352761804100831 38.63703305156273 L -17.028799428324326 46.165679785203004 L -11.233244470589915 47.71859405581813 L -19.25663486876806 77.66229467077923 A 19.935935394489817 19.935935394489817 0 1 0 19.25663486876806 77.66229467077923 L 8.903873064667229 39.02526161921651 Z"/><text text-anchor="middle" pointer-events="none" font-size="8px" fill="#000000" x="0" y="114.75802982729645" transform="rotate(180 0 111.75802982729645)" font-family="sans-serif">RIGHT</text></g><g class="relationship" transform="translate(274.1805813249491 102.63170145541818) rotate(315.0328572301934)"><path class="outline" fill="#A5ABB6" stroke="none" d="M 11.801650543534434 38.24880448390895 L 22.154412347635265 76.88583753547168 A 22.935935394489817 22.935935394489817 0 1 1 -22.154412347635265 76.88583753547168 L -14.13102194945712 46.94213692051056 L -8.33546699172271 48.49505119112569 L -10.352761804100831 38.63703305156273 L -17.028799428324326 46.165679785203004 L -11.233244470589915 47.71859405581813 L -19.25663486876806 77.66229467077923 A 19.935935394489817 19.935935394489817 0 1 0 19.25663486876806 77.66229467077923 L 8.903873064667229 39.02526161921651 Z"/><text text-anchor="middle" pointer-events="none" font-size="8px" fill="#000000" x="0" y="114.75802982729645" font-family="sans-serif">FRONT</text></g><g class="relationship" transform="translate(-143.69740098400428 97.45582613472601) rotate(360.72512988773116)"><path class="outline" fill="#A5ABB6" stroke="none" d="M 40 1.5 L 65.9161715388173 1.5 L 65.9161715388173 -1.5 L 40 -1.5 Z M 98.9161715388173 1.5 L 124.83234307763459 1.5 L 124.83234307763459 4.5 L 133.8323430776346 0 L 124.83234307763459 -4.5 L 124.83234307763459 -1.5 L 98.9161715388173 -1.5 Z"/><text text-anchor="middle" pointer-events="none" font-size="8px" fill="#000000" x="82.4161715388173" y="3" font-family="sans-serif">SCENE</text></g><g class="relationship" transform="translate(274.1805813249491 102.63170145541818) rotate(180.6985987299156)"><path class="outline" fill="#A5ABB6" stroke="none" d="M 40 1.5 L 101.03885166086323 1.5 L 101.03885166086323 -1.5 L 40 -1.5 Z M 134.03885166086323 1.5 L 195.07770332172646 1.5 L 195.07770332172646 4.5 L 204.07770332172646 0 L 195.07770332172646 -4.5 L 195.07770332172646 -1.5 L 134.03885166086323 -1.5 Z"/><text text-anchor="middle" pointer-events="none" font-size="8px" fill="#000000" x="117.53885166086323" y="3" transform="rotate(180 117.53885166086323 0)" font-family="sans-serif">SCENE</text></g></g><g class="layer nodes"><g class="node" transform="translate(143.1699107282407,251.95200495966054)"><circle class="outline" cx="0" cy="0" r="40" fill="#6DCE9E" stroke="#60B58B" stroke-width="2px"/><text text-anchor="middle" pointer-events="none" font-family="sans-serif" dy="2.5" font-size="40" fill="#FFFFFF"/><text text-anchor="middle" pointer-events="none" y="5" font-size="10px" fill="#FFFFFF" font-family="sans-serif"> IdentifiedScene</text></g><g class="node" transform="translate(274.1805813249491,102.63170145541818)"><circle class="outline" cx="0" cy="0" r="40" fill="#DE9BF9" stroke="#BF85D6" stroke-width="2px"/><text text-anchor="middle" pointer-events="none" font-family="sans-serif" dy="2.5" font-size="40" fill="#FFFFFF"/><text text-anchor="middle" pointer-events="none" y="5" font-size="10px" fill="#FFFFFF" font-family="sans-serif"> AbstractEntity</text></g><g class="node" transform="translate(150.23288352898177,-59.323575630028884)"><circle class="outline" cx="0" cy="0" r="40" fill="#FFD86E" stroke="#EDBA39" stroke-width="2px"/><text text-anchor="middle" pointer-events="none" font-family="sans-serif" dy="2.5" font-size="40" fill="#604A0E"/><text text-anchor="middle" pointer-events="none" y="5" font-size="10px" fill="#604A0E" font-family="sans-serif"> IdentifiedEntity</text></g><g class="node" transform="translate(30.12102075048641,99.65577285935092)"><circle class="outline" cx="0" cy="0" r="40" fill="#FB95AF" stroke="#E0849B" stroke-width="2px"/><text text-anchor="middle" pointer-events="none" font-family="sans-serif" dy="2.5" font-size="40" fill="#FFFFFF"/><text text-anchor="middle" pointer-events="none" y="5" font-size="10px" fill="#FFFFFF" font-family="sans-serif"> AbstractScene</text></g><g class="node" transform="translate(-143.69740098400428,97.45582613472601)"><circle class="outline" cx="0" cy="0" r="40" fill="#FF756E" stroke="#E06760" stroke-width="2px"/><text text-anchor="middle" pointer-events="none" font-family="sans-serif" dy="2.5" font-size="40" fill="#FFFFFF"/><text text-anchor="middle" pointer-events="none" y="5" font-size="10px" fill="#FFFFFF" font-family="sans-serif"> Sarcophagus</text></g></g></svg>