<svg xmlns="http://www.w3.org/2000/svg" width="222.49032592773438" height="193.48379516601562" viewBox="-10.000799179077148 -15.997978210449219 222.49032592773438 193.48379516601562"><title>Neo4j Graph Visualization</title><desc>Created using Neo4j (http://www.neo4j.com/)</desc><g class="layer relationships"><g class="relationship" transform="translate(100 100.00000000000004) rotate(180)"><path class="outline" fill="#68BDF6" stroke="none" d="M 11.801650543534434 38.24880448390895 L 22.154412347635265 76.88583753547168 A 22.935935394489817 22.935935394489817 0 1 1 -22.154412347635265 76.88583753547168 L -14.13102194945712 46.94213692051056 L -8.33546699172271 48.49505119112569 L -10.352761804100831 38.63703305156273 L -17.028799428324326 46.165679785203004 L -11.233244470589915 47.71859405581813 L -19.25663486876806 77.66229467077923 A 19.935935394489817 19.935935394489817 0 1 0 19.25663486876806 77.66229467077923 L 8.903873064667229 39.02526161921651 Z"/><text text-anchor="middle" pointer-events="none" font-size="8px" fill="#000000" x="0" y="114.75802982729645" transform="rotate(180 0 111.75802982729645)" font-family="sans-serif">SAME_AS</text></g><g class="relationship" transform="translate(100 100.00000000000004) rotate(300)"><path class="outline" fill="#6DCE9E" stroke="none" d="M 11.801650543534434 38.24880448390895 L 22.154412347635265 76.88583753547168 A 22.935935394489817 22.935935394489817 0 1 1 -22.154412347635265 76.88583753547168 L -14.13102194945712 46.94213692051056 L -8.33546699172271 48.49505119112569 L -10.352761804100831 38.63703305156273 L -17.028799428324326 46.165679785203004 L -11.233244470589915 47.71859405581813 L -19.25663486876806 77.66229467077923 A 19.935935394489817 19.935935394489817 0 1 0 19.25663486876806 77.66229467077923 L 8.903873064667229 39.02526161921651 Z"/><text text-anchor="middle" pointer-events="none" font-size="8px" fill="#000000" x="0" y="114.75802982729645" font-family="sans-serif">CHILD_OF</text></g><g class="relationship" transform="translate(100 100.00000000000004) rotate(420)"><path class="outline" fill="#FF756E" stroke="none" d="M 11.801650543534434 38.24880448390895 L 22.154412347635265 76.88583753547168 A 22.935935394489817 22.935935394489817 0 1 1 -22.154412347635265 76.88583753547168 L -14.13102194945712 46.94213692051056 L -8.33546699172271 48.49505119112569 L -10.352761804100831 38.63703305156273 L -17.028799428324326 46.165679785203004 L -11.233244470589915 47.71859405581813 L -19.25663486876806 77.66229467077923 A 19.935935394489817 19.935935394489817 0 1 0 19.25663486876806 77.66229467077923 L 8.903873064667229 39.02526161921651 Z"/><text text-anchor="middle" pointer-events="none" font-size="8px" fill="#000000" x="0" y="114.75802982729645" font-family="sans-serif">SPOUSE</text></g></g><g class="layer nodes"><g class="node" transform="translate(100,100.00000000000004)"><circle class="outline" cx="0" cy="0" r="40" fill="#68BDF6" stroke="#5CA8DB" stroke-width="2px"/><text text-anchor="middle" pointer-events="none" font-family="sans-serif" dy="2.5" font-size="40" fill="#FFFFFF"/><text text-anchor="middle" pointer-events="none" y="5" font-size="10px" fill="#FFFFFF" font-family="sans-serif"> Person</text></g></g></svg>