<svg xmlns="http://www.w3.org/2000/svg" width="417.892333984375" height="267.3226318359375" viewBox="-71.47373962402344 -58.22746276855469 417.892333984375 267.3226318359375"><title>Neo4j Graph Visualization</title><desc>Created using Neo4j (http://www.neo4j.com/)</desc><g class="layer relationships"><g class="relationship" transform="translate(140.2674398774243 85.96022247228098) rotate(377.23952495229696)"><path class="outline" fill="#A5ABB6" stroke="none" d="M 40 1.5 L 41.065707745108156 1.5 L 41.065707745108156 -1.5 L 40 -1.5 Z M 135.06570774510817 1.5 L 136.1314154902163 1.5 L 136.1314154902163 4.5 L 145.1314154902163 0 L 136.1314154902163 -4.5 L 136.1314154902163 -1.5 L 135.06570774510817 -1.5 Z"/><text text-anchor="middle" pointer-events="none" font-size="8px" fill="#000000" x="88.06570774510816" y="3" font-family="sans-serif">WANDERT_WANN_AUS</text></g><g class="relationship" transform="translate(140.2674398774243 85.96022247228098) rotate(217.74982403875566)"><path class="outline" fill="#A5ABB6" stroke="none" d="M 40 1.5 L 46.19925773470092 1.5 L 46.19925773470092 -1.5 L 40 -1.5 Z M 128.19925773470092 1.5 L 134.39851546940184 1.5 L 134.39851546940184 4.5 L 143.39851546940184 0 L 134.39851546940184 -4.5 L 134.39851546940184 -1.5 L 128.19925773470092 -1.5 Z"/><text text-anchor="middle" pointer-events="none" font-size="8px" fill="#000000" x="87.19925773470092" y="3" transform="rotate(180 87.19925773470092 0)" font-family="sans-serif">NACHGEWIESEN_IN</text></g><g class="relationship" transform="translate(140.2674398774243 85.96022247228098) rotate(507.1662108497579)"><path class="outline" fill="#A5ABB6" stroke="none" d="M 40 1.5 L 53.14149915654258 1.5 L 53.14149915654258 -1.5 L 40 -1.5 Z M 105.14149915654258 1.5 L 118.28299831308516 1.5 L 118.28299831308516 4.5 L 127.28299831308516 0 L 118.28299831308516 -4.5 L 118.28299831308516 -1.5 L 105.14149915654258 -1.5 Z"/><text text-anchor="middle" pointer-events="none" font-size="8px" fill="#000000" x="79.14149915654258" y="3" transform="rotate(180 79.14149915654258 0)" font-family="sans-serif">HAT_BERUF</text></g><g class="relationship" transform="translate(140.2674398774243 85.96022247228098) rotate(181.8904799829886)"><path class="outline" fill="#A5ABB6" stroke="none" d="M 40 1.5 L 58.9183054261522 1.5 L 58.9183054261522 -1.5 L 40 -1.5 Z M 114.9183054261522 1.5 L 133.8366108523044 1.5 L 133.8366108523044 4.5 L 142.8366108523044 0 L 133.8366108523044 -4.5 L 133.8366108523044 -1.5 L 114.9183054261522 -1.5 Z"/><text text-anchor="middle" pointer-events="none" font-size="8px" fill="#000000" x="86.9183054261522" y="3" transform="rotate(180 86.9183054261522 0)" font-family="sans-serif">KOMMT_AUS</text></g><g class="relationship" transform="translate(140.2674398774243 85.96022247228098) rotate(338.77302866720424)"><path class="outline" fill="#A5ABB6" stroke="none" d="M 40 1.5 L 61.73936840468026 1.5 L 61.73936840468026 -1.5 L 40 -1.5 Z M 116.73936840468026 1.5 L 138.47873680936053 1.5 L 138.47873680936053 4.5 L 147.47873680936053 0 L 138.47873680936053 -4.5 L 138.47873680936053 -1.5 L 116.73936840468026 -1.5 Z"/><text text-anchor="middle" pointer-events="none" font-size="8px" fill="#000000" x="89.23936840468026" y="3" font-family="sans-serif">GEHT_NACH</text></g></g><g class="layer nodes"><g class="node" transform="translate(-34.97373719776522,80.17602309168329)"><circle class="outline" cx="0" cy="0" r="32.5" fill="#8DCC93" stroke="#5db665" stroke-width="2px"/><text text-anchor="middle" pointer-events="none" font-family="sans-serif" dy="2.03125" font-size="32.5" fill="#604A0E"/><text text-anchor="middle" pointer-events="none" y="5" font-size="10px" fill="#604A0E" font-family="sans-serif"> Ort</text></g><g class="node" transform="translate(6.010255737207046,172.59517532999988)"><circle class="outline" cx="0" cy="0" r="32.5" fill="#D9C8AE" stroke="#c0a378" stroke-width="2px"/><text text-anchor="middle" pointer-events="none" font-family="sans-serif" dy="2.03125" font-size="32.5" fill="#604A0E"/><text text-anchor="middle" pointer-events="none" y="5" font-size="10px" fill="#604A0E" font-family="sans-serif"> Beruf</text></g><g class="node" transform="translate(1.1859869381166561,-21.727461097524497)"><circle class="outline" cx="0" cy="0" r="32.5" fill="#F16667" stroke="#eb2728" stroke-width="2px"/><text text-anchor="middle" pointer-events="none" font-family="sans-serif" dy="2.03125" font-size="32.5" fill="#FFFFFF"/><text text-anchor="middle" pointer-events="none" y="5" font-size="10px" fill="#FFFFFF" font-family="sans-serif"> Akte</text></g><g class="node" transform="translate(308.03524343328957,20.796507158207106)"><circle class="outline" cx="0" cy="0" r="32.5" fill="#569480" stroke="#447666" stroke-width="2px"/><text text-anchor="middle" pointer-events="none" font-family="sans-serif" dy="2.03125" font-size="32.5" fill="#FFFFFF"/><text text-anchor="middle" pointer-events="none" y="5" font-size="10px" fill="#FFFFFF" font-family="sans-serif"> Region</text></g><g class="node" transform="translate(309.91861187379277,138.60430674883057)"><circle class="outline" cx="0" cy="0" r="32.5" fill="#ECB5C9" stroke="#da7298" stroke-width="2px"/><text text-anchor="middle" pointer-events="none" font-family="sans-serif" dy="2.03125" font-size="32.5" fill="#604A0E"/><text text-anchor="middle" pointer-events="none" y="5" font-size="10px" fill="#604A0E" font-family="sans-serif"> Zeit</text></g><g class="node" transform="translate(140.2674398774243,85.96022247228098)"><circle class="outline" cx="0" cy="0" r="40" fill="#4C8EDA" stroke="#2870c2" stroke-width="2px"/><text text-anchor="middle" pointer-events="none" font-family="sans-serif" dy="2.5" font-size="40" fill="#FFFFFF"/><text text-anchor="middle" pointer-events="none" y="5" font-size="10px" fill="#FFFFFF" font-family="sans-serif"> Person</text></g></g></svg>