<svg xmlns="http://www.w3.org/2000/svg" width="633.0588989257812" height="249.3693084716797" viewBox="-248.74514770507812 -112.66578674316406 633.0588989257812 249.3693084716797"><title>Neo4j Graph Visualization</title><desc>Created using Neo4j (http://www.neo4j.com/)</desc><g class="layer relationships"><g class="relationship" transform="translate(151.97184739605865 89.76534589473565) rotate(304.3020542026164)"><path class="outline" fill="#DE9BF9" stroke="none" d="M 40 1.5 L 43.80117610973073 1.5 L 43.80117610973073 -1.5 L 40 -1.5 Z M 138.80117610973073 1.5 L 142.60235221946147 1.5 L 142.60235221946147 4.5 L 151.60235221946147 0 L 142.60235221946147 -4.5 L 142.60235221946147 -1.5 L 138.80117610973073 -1.5 Z"/><text text-anchor="middle" pointer-events="none" font-size="8px" fill="#000000" x="91.30117610973073" y="3" font-family="sans-serif">HERRSCHERHANDELN</text></g><g class="relationship" transform="translate(151.97184739605865 89.76534589473565) rotate(180.20892658955847)"><path class="outline" fill="#68BDF6" stroke="none" d="M 38.24880448390895,-11.801650543534432 L 39.025261619216515,-8.903873064667227 A 203.8569596354333 203.8569596354333 0 0 1 55.80904283689471,-12.650149796896699 L 55.279579200082765,-15.603058237281175 A 206.8569596354333 206.8569596354333 0 0 0 38.24880448390895,-11.801650543534432 Z M 123.4589779077848,-16.41114506319522 L 122.99965104664307,-13.446517121170501 A 203.8569596354333 203.8569596354333 0 0 1 139.86750938025378,-10.09909175910917 L 139.15995172487607,-7.183725201655989 L 148.96738788030217,-9.434102071702657 L 141.28262469100918,-15.92982487401553 L 140.57506703563146,-13.014458316562349 A 206.8569596354333 206.8569596354333 0 0 0 123.4589779077848,-16.41114506319522"/><text text-anchor="middle" pointer-events="none" font-size="8px" fill="#000000" x="89.35353143313617" y="-14.335707924872509" transform="rotate(180 89.35353143313617 -17.33570792487251)" font-family="sans-serif">BELEGNUMMER</text></g><g class="relationship" transform="translate(-35.86584577087582 89.08040080981841) rotate(539.6929441593097)"><path class="outline" fill="#FFD86E" stroke="none" d="M 40 1.5 L 55.44086427337261 1.5 L 55.44086427337261 -1.5 L 40 -1.5 Z M 104.44086427337261 1.5 L 119.88172854674522 1.5 L 119.88172854674522 4.5 L 128.88172854674522 0 L 119.88172854674522 -4.5 L 119.88172854674522 -1.5 L 104.44086427337261 -1.5 Z"/><text text-anchor="middle" pointer-events="none" font-size="8px" fill="#000000" x="79.94086427337261" y="3" transform="rotate(180 79.94086427337261 0)" font-family="sans-serif">LITERATUR</text></g><g class="relationship" transform="translate(71.61401841652327 -68.66578618548597) rotate(423.10542811102107)"><path class="outline" fill="#FF756E" stroke="none" d="M 40 1.5 L 55.82258199709814 1.5 L 55.82258199709814 -1.5 L 40 -1.5 Z M 112.82258199709814 1.5 L 128.64516399419628 1.5 L 128.64516399419628 4.5 L 137.64516399419628 0 L 128.64516399419628 -4.5 L 128.64516399419628 -1.5 L 112.82258199709814 -1.5 Z"/><text text-anchor="middle" pointer-events="none" font-size="8px" fill="#000000" x="84.32258199709814" y="3" font-family="sans-serif">GENANNT_IN</text></g><g class="relationship" transform="translate(151.97184739605865 89.76534589473565) rotate(360.8937550851972)"><path class="outline" fill="#6DCE9E" stroke="none" d="M 40 1.5 L 47.18241416508377 1.5 L 47.18241416508377 -1.5 L 40 -1.5 Z M 132.18241416508377 1.5 L 139.36482833016754 1.5 L 139.36482833016754 4.5 L 148.36482833016754 0 L 139.36482833016754 -4.5 L 139.36482833016754 -1.5 L 132.18241416508377 -1.5 Z"/><text text-anchor="middle" pointer-events="none" font-size="8px" fill="#000000" x="89.68241416508377" y="3" font-family="sans-serif">AUSSTELLUNGSORT</text></g><g class="relationship" transform="translate(151.97184739605865 89.76534589473565) rotate(180.20892658955847)"><path class="outline" fill="#68BDF6" stroke="none" d="M 38.24880448390895,11.801650543534432 L 39.025261619216515,8.903873064667227 A 203.8569596354333 203.8569596354333 0 0 0 63.159754147768545,13.830041065412018 L 62.738465056344,16.800313022901207 A 206.8569596354333 206.8569596354333 0 0 1 38.24880448390895,11.801650543534432 Z M 115.9738107778445,17.431277542476323 L 115.62303961349632,14.451854848352184 A 203.8569596354333 203.8569596354333 0 0 0 139.86750938025378,10.09909175910917 L 139.15995172487607,7.183725201655989 L 148.96738788030217,9.434102071702657 L 141.28262469100918,15.92982487401553 L 140.57506703563146,13.014458316562349 A 206.8569596354333 206.8569596354333 0 0 1 115.9738107778445,17.431277542476323"/><text text-anchor="middle" pointer-events="none" font-size="8px" fill="#000000" x="89.35353143313621" y="20.33570792487251" transform="rotate(180 89.35353143313621 17.33570792487251)" font-family="sans-serif">BELEGSEITE</text></g></g><g class="layer nodes"><g class="node" transform="translate(340.3137589882622,92.70352384170891)"><circle class="outline" cx="0" cy="0" r="40" fill="#6DCE9E" stroke="#60B58B" stroke-width="2px"/><text text-anchor="middle" pointer-events="none" font-family="sans-serif" dy="2.5" font-size="40" fill="#FFFFFF"/><text text-anchor="middle" pointer-events="none" y="5" font-size="10px" fill="#FFFFFF" font-family="sans-serif"> Ort</text></g><g class="node" transform="translate(-119.79892225090776,-66.5404945603247)"><circle class="outline" cx="0" cy="0" r="40" fill="#A5ABB6" stroke="#9AA1AC" stroke-width="2px"/><text text-anchor="middle" pointer-events="none" font-family="sans-serif" dy="2.5" font-size="40" fill="#FFFFFF"/><text text-anchor="middle" pointer-events="none" y="5" font-size="10px" fill="#FFFFFF" font-family="sans-serif"> Datum</text></g><g class="node" transform="translate(259.95043867463545,-68.51315928371434)"><circle class="outline" cx="0" cy="0" r="40" fill="#DE9BF9" stroke="#BF85D6" stroke-width="2px"/><text text-anchor="middle" pointer-events="none" font-family="sans-serif" dy="2.5" font-size="40" fill="#FFFFFF"/><text text-anchor="middle" pointer-events="none" y="5" font-size="10px" fill="#FFFFFF" font-family="sans-serif"> Lemma</text></g><g class="node" transform="translate(71.61401841652327,-68.66578618548597)"><circle class="outline" cx="0" cy="0" r="40" fill="#FB95AF" stroke="#E0849B" stroke-width="2px"/><text text-anchor="middle" pointer-events="none" font-family="sans-serif" dy="2.5" font-size="40" fill="#FFFFFF"/><text text-anchor="middle" pointer-events="none" y="5" font-size="10px" fill="#FFFFFF" font-family="sans-serif"> Registereintrag</text></g><g class="node" transform="translate(-204.74514915374235,89.98545652869254)"><circle class="outline" cx="0" cy="0" r="40" fill="#FFD86E" stroke="#EDBA39" stroke-width="2px"/><text text-anchor="middle" pointer-events="none" font-family="sans-serif" dy="2.5" font-size="40" fill="#604A0E"/><text text-anchor="middle" pointer-events="none" y="5" font-size="10px" fill="#604A0E" font-family="sans-serif"> Literatur</text></g><g class="node" transform="translate(-35.86584577087582,89.08040080981841)"><circle class="outline" cx="0" cy="0" r="40" fill="#68BDF6" stroke="#5CA8DB" stroke-width="2px"/><text text-anchor="middle" pointer-events="none" font-family="sans-serif" dy="2.5" font-size="40" fill="#FFFFFF"/><text text-anchor="middle" pointer-events="none" y="5" font-size="10px" fill="#FFFFFF" font-family="sans-serif"> Beleg</text></g><g class="node" transform="translate(151.97184739605865,89.76534589473565)"><circle class="outline" cx="0" cy="0" r="40" fill="#FF756E" stroke="#E06760" stroke-width="2px"/><text text-anchor="middle" pointer-events="none" font-family="sans-serif" dy="2.5" font-size="40" fill="#FFFFFF"/><text text-anchor="middle" pointer-events="none" y="5" font-size="10px" fill="#FFFFFF" font-family="sans-serif"> Regest</text></g></g></svg>