<svg xmlns="http://www.w3.org/2000/svg" width="357.79278564453125" height="227.93283081054688" viewBox="-173.996826171875 1.8807601928710938 357.79278564453125 227.93283081054688"><title>Neo4j Graph Visualization</title><desc>Created using Neo4j (http://www.neo4j.com/)</desc><g class="layer relationships"><g class="relationship" transform="translate(-129.996823057156 45.88075967333632) rotate(404.88214439250123)"><path class="outline" fill="#A5ABB6" stroke="none" d="M 40 1.5 L 63.15162138133684 1.5 L 63.15162138133684 -1.5 L 40 -1.5 Z M 126.15162138133684 1.5 L 149.30324276267368 1.5 L 149.30324276267368 4.5 L 158.30324276267368 0 L 149.30324276267368 -4.5 L 149.30324276267368 -1.5 L 126.15162138133684 -1.5 Z"/><text text-anchor="middle" pointer-events="none" font-size="8px" fill="#000000" x="94.65162138133684" y="3" font-family="sans-serif">GEDRUCKT_IN</text></g><g class="relationship" transform="translate(139.79594600299575 46.13103464164602) rotate(180.05315077694092)"><path class="outline" fill="#A5ABB6" stroke="none" d="M 38.24880448390895,11.801650543534432 L 39.025261619216515,8.903873064667227 A 364.6822391130056 364.6822391130056 0 0 0 103.00966717881194,20.06064176793376 L 102.75956750238602,23.050198616674322 A 367.6822391130056 367.6822391130056 0 0 1 38.24880448390895,11.801650543534432 Z M 157.9310390487276,23.511675128362754 L 157.73098259295006,20.518352991588642 A 364.6822391130056 364.6822391130056 0 0 0 221.89306206154242,10.433453340179298 L 221.16518654094298,7.523093014289718 L 230.98808079951087,9.705006941325786 L 223.34881310274127,16.25417399195846 L 222.62093758214183,13.343813666068879 A 367.6822391130056 367.6822391130056 0 0 1 157.9310390487276,23.511675128362754"/><text text-anchor="middle" pointer-events="none" font-size="8px" fill="#000000" x="130.3491812379018" y="25.817310049147125" transform="rotate(180 130.3491812379018 22.817310049147125)" font-family="sans-serif">AUTOR_VON</text></g><g class="relationship" transform="translate(139.79594600299575 46.13103464164602) rotate(180.05315077694092)"><path class="outline" fill="#A5ABB6" stroke="none" d="M 38.24880448390895,-11.801650543534432 L 39.025261619216515,-8.903873064667227 A 364.6822391130056 364.6822391130056 0 0 1 87.65872065157454,-18.448620175071824 L 87.2823388735203,-21.424915986504004 A 367.6822391130056 367.6822391130056 0 0 0 38.24880448390895,-11.801650543534432 Z M 173.43328929520484,-22.14551739453151 L 173.10674658093512,-19.16334203822572 A 364.6822391130056 364.6822391130056 0 0 1 221.89306206154242,-10.433453340179298 L 221.16518654094298,-7.523093014289718 L 230.98808079951087,-9.705006941325786 L 223.34881310274127,-16.25417399195846 L 222.62093758214183,-13.343813666068879 A 367.6822391130056 367.6822391130056 0 0 0 173.43328929520484,-22.14551739453151"/><text text-anchor="middle" pointer-events="none" font-size="8px" fill="#000000" x="130.34918123790175" y="-19.817310049147125" transform="rotate(180 130.34918123790175 -22.817310049147125)" font-family="sans-serif">KOMMENTIERT_VON</text></g></g><g class="layer nodes"><g class="node" transform="translate(10.512879113975444,185.81359958581658)"><circle class="outline" cx="0" cy="0" r="40" fill="#6DCE9E" stroke="#60B58B" stroke-width="2px"/><text text-anchor="middle" pointer-events="none" font-family="sans-serif" dy="2.5" font-size="40" fill="#FFFFFF"/><text text-anchor="middle" pointer-events="none" y="5" font-size="10px" fill="#FFFFFF" font-family="sans-serif"> Ort</text></g><g class="node" transform="translate(139.79594600299575,46.13103464164602)"><circle class="outline" cx="0" cy="0" r="40" fill="#68BDF6" stroke="#5CA8DB" stroke-width="2px"/><text text-anchor="middle" pointer-events="none" font-family="sans-serif" dy="2.5" font-size="40" fill="#FFFFFF"/><text text-anchor="middle" pointer-events="none" y="5" font-size="10px" fill="#FFFFFF" font-family="sans-serif"> Person</text></g><g class="node" transform="translate(-129.996823057156,45.88075967333632)"><circle class="outline" cx="0" cy="0" r="40" fill="#FF756E" stroke="#E06760" stroke-width="2px"/><text text-anchor="middle" pointer-events="none" font-family="sans-serif" dy="2.5" font-size="40" fill="#FFFFFF"/><text text-anchor="middle" pointer-events="none" y="5" font-size="10px" fill="#FFFFFF" font-family="sans-serif"> Werk</text></g></g></svg>